<svg xmlns="http://www.w3.org/2000/svg" xmlns:xlink="http://www.w3.org/1999/xlink" width="334.911" height="219.923" viewBox="0 0 334.911 219.923">
<defs>
<g>
<g id="glyph-0-0">
<path d="M 2.828125 -6.21875 C 2.828125 -6.421875 2.6875 -6.578125 2.453125 -6.578125 C 2.1875 -6.578125 1.921875 -6.3125 1.921875 -6.046875 C 1.921875 -5.859375 2.0625 -5.6875 2.296875 -5.6875 C 2.53125 -5.6875 2.828125 -5.921875 2.828125 -6.21875 Z M 2.0625 -2.484375 C 2.1875 -2.765625 2.1875 -2.78125 2.296875 -3.0625 C 2.375 -3.25 2.421875 -3.390625 2.421875 -3.578125 C 2.421875 -4.03125 2.09375 -4.40625 1.609375 -4.40625 C 0.671875 -4.40625 0.28125 -2.953125 0.28125 -2.859375 C 0.28125 -2.765625 0.390625 -2.765625 0.40625 -2.765625 C 0.5 -2.765625 0.515625 -2.78125 0.5625 -2.953125 C 0.84375 -3.875 1.234375 -4.1875 1.578125 -4.1875 C 1.65625 -4.1875 1.828125 -4.1875 1.828125 -3.859375 C 1.828125 -3.65625 1.75 -3.4375 1.71875 -3.34375 C 1.625 -3.078125 1.1875 -1.9375 1.03125 -1.5 C 0.921875 -1.25 0.796875 -0.921875 0.796875 -0.703125 C 0.796875 -0.234375 1.140625 0.109375 1.609375 0.109375 C 2.546875 0.109375 2.921875 -1.328125 2.921875 -1.421875 C 2.921875 -1.515625 2.828125 -1.515625 2.796875 -1.515625 C 2.703125 -1.515625 2.703125 -1.5 2.640625 -1.34375 C 2.46875 -0.71875 2.140625 -0.109375 1.625 -0.109375 C 1.46875 -0.109375 1.390625 -0.203125 1.390625 -0.4375 C 1.390625 -0.6875 1.453125 -0.828125 1.6875 -1.4375 Z M 2.0625 -2.484375 "/>
</g>
<g id="glyph-0-1">
<path d="M 2.015625 -0.015625 C 2.015625 -0.671875 1.765625 -1.0625 1.390625 -1.0625 C 1.0625 -1.0625 0.859375 -0.8125 0.859375 -0.53125 C 0.859375 -0.265625 1.0625 0 1.390625 0 C 1.5 0 1.625 -0.046875 1.734375 -0.125 C 1.765625 -0.15625 1.765625 -0.15625 1.78125 -0.15625 C 1.796875 -0.15625 1.796875 -0.15625 1.796875 -0.015625 C 1.796875 0.734375 1.453125 1.328125 1.125 1.65625 C 1.015625 1.765625 1.015625 1.78125 1.015625 1.8125 C 1.015625 1.875 1.0625 1.921875 1.109375 1.921875 C 1.21875 1.921875 2.015625 1.15625 2.015625 -0.015625 Z M 2.015625 -0.015625 "/>
</g>
<g id="glyph-0-2">
<path d="M 3.015625 -3.234375 L 3.984375 -3.234375 C 4.734375 -3.234375 4.8125 -3.078125 4.8125 -2.78125 C 4.8125 -2.71875 4.8125 -2.59375 4.734375 -2.296875 C 4.71875 -2.25 4.703125 -2.203125 4.703125 -2.1875 C 4.703125 -2.109375 4.765625 -2.0625 4.828125 -2.0625 C 4.921875 -2.0625 4.921875 -2.09375 4.96875 -2.28125 L 5.53125 -4.4375 C 5.546875 -4.546875 5.546875 -4.5625 5.546875 -4.59375 C 5.546875 -4.625 5.53125 -4.703125 5.4375 -4.703125 C 5.328125 -4.703125 5.328125 -4.65625 5.28125 -4.5 C 5.078125 -3.71875 4.84375 -3.546875 4 -3.546875 L 3.09375 -3.546875 L 3.734375 -6.078125 C 3.828125 -6.421875 3.828125 -6.453125 4.265625 -6.453125 L 5.578125 -6.453125 C 6.8125 -6.453125 7.03125 -6.125 7.03125 -5.359375 C 7.03125 -5.140625 7.03125 -5.09375 7 -4.828125 C 6.984375 -4.703125 6.984375 -4.671875 6.984375 -4.640625 C 6.984375 -4.59375 7.015625 -4.53125 7.109375 -4.53125 C 7.21875 -4.53125 7.21875 -4.59375 7.25 -4.78125 L 7.4375 -6.5 C 7.46875 -6.765625 7.421875 -6.765625 7.171875 -6.765625 L 2.296875 -6.765625 C 2.09375 -6.765625 2 -6.765625 2 -6.5625 C 2 -6.453125 2.09375 -6.453125 2.28125 -6.453125 C 2.640625 -6.453125 2.921875 -6.453125 2.921875 -6.28125 C 2.921875 -6.234375 2.921875 -6.21875 2.875 -6.046875 L 1.5625 -0.78125 C 1.46875 -0.390625 1.4375 -0.3125 0.65625 -0.3125 C 0.484375 -0.3125 0.375 -0.3125 0.375 -0.125 C 0.375 0 0.5 0 0.53125 0 C 0.8125 0 1.546875 -0.03125 1.84375 -0.03125 C 2.171875 -0.03125 3 0 3.328125 0 C 3.40625 0 3.53125 0 3.53125 -0.1875 C 3.53125 -0.265625 3.46875 -0.28125 3.46875 -0.296875 C 3.4375 -0.3125 3.421875 -0.3125 3.1875 -0.3125 C 2.96875 -0.3125 2.921875 -0.3125 2.671875 -0.328125 C 2.390625 -0.359375 2.359375 -0.390625 2.359375 -0.53125 C 2.359375 -0.546875 2.359375 -0.609375 2.40625 -0.75 Z M 3.015625 -3.234375 "/>
</g>
<g id="glyph-0-3">
<path d="M 4.671875 -2.71875 C 4.671875 -3.75 3.96875 -4.40625 3.078125 -4.40625 C 1.734375 -4.40625 0.40625 -2.984375 0.40625 -1.578125 C 0.40625 -0.59375 1.078125 0.109375 2 0.109375 C 3.328125 0.109375 4.671875 -1.265625 4.671875 -2.71875 Z M 2.015625 -0.109375 C 1.578125 -0.109375 1.140625 -0.421875 1.140625 -1.1875 C 1.140625 -1.6875 1.40625 -2.75 1.71875 -3.265625 C 2.21875 -4.03125 2.78125 -4.1875 3.0625 -4.1875 C 3.640625 -4.1875 3.9375 -3.703125 3.9375 -3.109375 C 3.9375 -2.71875 3.75 -1.671875 3.359375 -1.03125 C 3.015625 -0.453125 2.46875 -0.109375 2.015625 -0.109375 Z M 2.015625 -0.109375 "/>
</g>
<g id="glyph-1-0">
<path d="M 3.59375 -2.21875 C 3.59375 -2.984375 3.5 -3.546875 3.1875 -4.03125 C 2.96875 -4.34375 2.53125 -4.625 1.984375 -4.625 C 0.359375 -4.625 0.359375 -2.71875 0.359375 -2.21875 C 0.359375 -1.71875 0.359375 0.140625 1.984375 0.140625 C 3.59375 0.140625 3.59375 -1.71875 3.59375 -2.21875 Z M 1.984375 -0.0625 C 1.65625 -0.0625 1.234375 -0.25 1.09375 -0.8125 C 1 -1.21875 1 -1.796875 1 -2.3125 C 1 -2.828125 1 -3.359375 1.09375 -3.734375 C 1.25 -4.28125 1.6875 -4.4375 1.984375 -4.4375 C 2.359375 -4.4375 2.71875 -4.203125 2.84375 -3.796875 C 2.953125 -3.421875 2.96875 -2.921875 2.96875 -2.3125 C 2.96875 -1.796875 2.96875 -1.28125 2.875 -0.84375 C 2.734375 -0.203125 2.265625 -0.0625 1.984375 -0.0625 Z M 1.984375 -0.0625 "/>
</g>
<g id="glyph-1-1">
<path d="M 2.328125 -4.4375 C 2.328125 -4.625 2.328125 -4.625 2.125 -4.625 C 1.671875 -4.1875 1.046875 -4.1875 0.765625 -4.1875 L 0.765625 -3.9375 C 0.921875 -3.9375 1.390625 -3.9375 1.765625 -4.125 L 1.765625 -0.578125 C 1.765625 -0.34375 1.765625 -0.25 1.078125 -0.25 L 0.8125 -0.25 L 0.8125 0 C 0.9375 0 1.796875 -0.03125 2.046875 -0.03125 C 2.265625 -0.03125 3.140625 0 3.296875 0 L 3.296875 -0.25 L 3.03125 -0.25 C 2.328125 -0.25 2.328125 -0.34375 2.328125 -0.578125 Z M 2.328125 -4.4375 "/>
</g>
<g id="glyph-1-2">
<path d="M 3.515625 -1.265625 L 3.28125 -1.265625 C 3.265625 -1.109375 3.1875 -0.703125 3.09375 -0.640625 C 3.046875 -0.59375 2.515625 -0.59375 2.40625 -0.59375 L 1.125 -0.59375 C 1.859375 -1.234375 2.109375 -1.4375 2.515625 -1.765625 C 3.03125 -2.171875 3.515625 -2.609375 3.515625 -3.265625 C 3.515625 -4.109375 2.78125 -4.625 1.890625 -4.625 C 1.03125 -4.625 0.4375 -4.015625 0.4375 -3.375 C 0.4375 -3.03125 0.734375 -2.984375 0.8125 -2.984375 C 0.96875 -2.984375 1.171875 -3.109375 1.171875 -3.359375 C 1.171875 -3.484375 1.125 -3.734375 0.765625 -3.734375 C 0.984375 -4.21875 1.453125 -4.375 1.78125 -4.375 C 2.484375 -4.375 2.84375 -3.828125 2.84375 -3.265625 C 2.84375 -2.65625 2.40625 -2.1875 2.1875 -1.9375 L 0.515625 -0.265625 C 0.4375 -0.203125 0.4375 -0.1875 0.4375 0 L 3.3125 0 Z M 3.515625 -1.265625 "/>
</g>
<g id="glyph-1-3">
<path d="M 1.90625 -2.328125 C 2.453125 -2.328125 2.84375 -1.953125 2.84375 -1.203125 C 2.84375 -0.34375 2.328125 -0.078125 1.9375 -0.078125 C 1.65625 -0.078125 1.03125 -0.15625 0.75 -0.578125 C 1.078125 -0.578125 1.15625 -0.8125 1.15625 -0.96875 C 1.15625 -1.1875 0.984375 -1.34375 0.765625 -1.34375 C 0.578125 -1.34375 0.375 -1.21875 0.375 -0.9375 C 0.375 -0.28125 1.09375 0.140625 1.9375 0.140625 C 2.90625 0.140625 3.578125 -0.515625 3.578125 -1.203125 C 3.578125 -1.75 3.140625 -2.296875 2.375 -2.453125 C 3.09375 -2.71875 3.359375 -3.234375 3.359375 -3.671875 C 3.359375 -4.21875 2.734375 -4.625 1.953125 -4.625 C 1.1875 -4.625 0.59375 -4.25 0.59375 -3.6875 C 0.59375 -3.453125 0.75 -3.328125 0.953125 -3.328125 C 1.171875 -3.328125 1.3125 -3.484375 1.3125 -3.671875 C 1.3125 -3.875 1.171875 -4.03125 0.953125 -4.046875 C 1.203125 -4.34375 1.671875 -4.421875 1.9375 -4.421875 C 2.25 -4.421875 2.6875 -4.265625 2.6875 -3.671875 C 2.6875 -3.375 2.59375 -3.046875 2.40625 -2.84375 C 2.1875 -2.578125 1.984375 -2.5625 1.640625 -2.53125 C 1.46875 -2.515625 1.453125 -2.515625 1.421875 -2.515625 C 1.40625 -2.515625 1.34375 -2.5 1.34375 -2.421875 C 1.34375 -2.328125 1.40625 -2.328125 1.53125 -2.328125 Z M 1.90625 -2.328125 "/>
</g>
<g id="glyph-2-0">
<path d="M 7.953125 -3.375 C 7.953125 -5.53125 6.515625 -6.9375 4.296875 -6.9375 C 2.015625 -6.9375 0.640625 -5.46875 0.640625 -3.375 C 0.640625 -1.3125 2.03125 0.109375 4.296875 0.109375 C 6.578125 0.109375 7.953125 -1.328125 7.953125 -3.375 Z M 4.296875 -0.3125 C 3.703125 -0.3125 2.96875 -0.59375 2.5625 -1.34375 C 2.234375 -1.953125 2.15625 -2.671875 2.15625 -3.515625 C 2.15625 -4.15625 2.1875 -5 2.625 -5.6875 C 3.03125 -6.296875 3.703125 -6.546875 4.296875 -6.546875 C 4.921875 -6.546875 5.609375 -6.265625 6.015625 -5.609375 C 6.390625 -4.96875 6.421875 -4.203125 6.421875 -3.515625 C 6.421875 -2.828125 6.390625 -1.9375 5.96875 -1.25 C 5.53125 -0.53125 4.828125 -0.3125 4.296875 -0.3125 Z M 4.296875 -0.3125 "/>
</g>
<g id="glyph-2-1">
<path d="M 2.125 -3.984375 L 2.125 -6.90625 L 0.375 -6.828125 L 0.375 -6.359375 C 0.984375 -6.359375 1.0625 -6.359375 1.0625 -5.96875 L 1.0625 0 L 1.515625 0 L 2.015625 -0.5625 C 2.09375 -0.484375 2.578125 0.0625 3.46875 0.0625 C 4.953125 0.0625 5.96875 -0.84375 5.96875 -2.21875 C 5.96875 -3.546875 5.03125 -4.484375 3.59375 -4.484375 C 2.859375 -4.484375 2.375 -4.1875 2.125 -3.984375 Z M 2.1875 -0.984375 L 2.1875 -3.484375 C 2.453125 -3.828125 2.9375 -4.125 3.484375 -4.125 C 4.703125 -4.125 4.703125 -2.921875 4.703125 -2.21875 C 4.703125 -1.75 4.703125 -1.203125 4.4375 -0.8125 C 4.15625 -0.40625 3.6875 -0.296875 3.375 -0.296875 C 2.671875 -0.296875 2.296875 -0.84375 2.1875 -0.984375 Z M 2.1875 -0.984375 "/>
</g>
<g id="glyph-2-2">
<path d="M 2.09375 -2.921875 C 1.734375 -3 1.078125 -3.109375 1.078125 -3.578125 C 1.078125 -4.1875 2.015625 -4.1875 2.203125 -4.1875 C 2.953125 -4.1875 3.328125 -3.90625 3.375 -3.359375 C 3.390625 -3.203125 3.390625 -3.15625 3.609375 -3.15625 C 3.84375 -3.15625 3.84375 -3.203125 3.84375 -3.4375 L 3.84375 -4.234375 C 3.84375 -4.421875 3.84375 -4.515625 3.65625 -4.515625 C 3.625 -4.515625 3.609375 -4.515625 3.21875 -4.3125 C 2.953125 -4.453125 2.609375 -4.515625 2.203125 -4.515625 C 1.90625 -4.515625 0.375 -4.515625 0.375 -3.203125 C 0.375 -2.8125 0.578125 -2.53125 0.78125 -2.375 C 1.171875 -2.015625 1.546875 -1.953125 2.3125 -1.828125 C 2.671875 -1.765625 3.421875 -1.625 3.421875 -1.046875 C 3.421875 -0.296875 2.515625 -0.296875 2.296875 -0.296875 C 1.234375 -0.296875 0.96875 -1.03125 0.859375 -1.453125 C 0.8125 -1.59375 0.75 -1.59375 0.609375 -1.59375 C 0.375 -1.59375 0.375 -1.53125 0.375 -1.296875 L 0.375 -0.21875 C 0.375 -0.03125 0.375 0.0625 0.5625 0.0625 C 0.625 0.0625 0.640625 0.0625 0.859375 -0.09375 C 0.859375 -0.09375 1.078125 -0.234375 1.109375 -0.265625 C 1.578125 0.0625 2.09375 0.0625 2.296875 0.0625 C 2.59375 0.0625 4.125 0.0625 4.125 -1.390625 C 4.125 -1.828125 3.9375 -2.171875 3.578125 -2.453125 C 3.1875 -2.734375 2.875 -2.796875 2.09375 -2.921875 Z M 2.09375 -2.921875 "/>
</g>
<g id="glyph-2-3">
<path d="M 4.59375 -2.171875 C 4.8125 -2.171875 4.921875 -2.171875 4.921875 -2.4375 C 4.921875 -2.75 4.859375 -3.46875 4.359375 -3.96875 C 3.984375 -4.328125 3.46875 -4.515625 2.78125 -4.515625 C 1.1875 -4.515625 0.3125 -3.484375 0.3125 -2.234375 C 0.3125 -0.90625 1.3125 0.0625 2.921875 0.0625 C 4.484375 0.0625 4.921875 -1 4.921875 -1.171875 C 4.921875 -1.34375 4.734375 -1.34375 4.671875 -1.34375 C 4.515625 -1.34375 4.484375 -1.296875 4.421875 -1.140625 C 4.21875 -0.65625 3.65625 -0.34375 3 -0.34375 C 1.609375 -0.34375 1.59375 -1.65625 1.59375 -2.171875 Z M 1.59375 -2.5 C 1.609375 -2.890625 1.625 -3.296875 1.828125 -3.640625 C 2.09375 -4.03125 2.484375 -4.15625 2.78125 -4.15625 C 3.9375 -4.15625 3.96875 -2.84375 3.96875 -2.5 Z M 1.59375 -2.5 "/>
</g>
<g id="glyph-2-4">
<path d="M 2.015625 -3.359375 L 2.015625 -4.484375 L 0.375 -4.40625 L 0.375 -3.9375 C 0.984375 -3.9375 1.0625 -3.9375 1.0625 -3.546875 L 1.0625 -0.46875 L 0.375 -0.46875 L 0.375 0 C 0.71875 -0.015625 1.171875 -0.03125 1.625 -0.03125 C 2 -0.03125 2.640625 -0.03125 3 0 L 3 -0.46875 L 2.125 -0.46875 L 2.125 -2.203125 C 2.125 -2.90625 2.375 -4.125 3.375 -4.125 C 3.359375 -4.109375 3.1875 -3.953125 3.1875 -3.65625 C 3.1875 -3.25 3.5 -3.0625 3.796875 -3.0625 C 4.078125 -3.0625 4.40625 -3.265625 4.40625 -3.65625 C 4.40625 -4.1875 3.859375 -4.484375 3.34375 -4.484375 C 2.640625 -4.484375 2.25 -3.984375 2.015625 -3.359375 Z M 2.015625 -3.359375 "/>
</g>
<g id="glyph-2-5">
<path d="M 5.03125 -3.75 C 5.09375 -3.875 5.140625 -3.953125 5.765625 -3.953125 L 5.765625 -4.421875 C 5.53125 -4.40625 5.234375 -4.390625 4.984375 -4.390625 C 4.734375 -4.390625 4.296875 -4.40625 4.078125 -4.421875 L 4.078125 -3.953125 C 4.265625 -3.953125 4.5625 -3.921875 4.5625 -3.84375 C 4.5625 -3.828125 4.546875 -3.8125 4.515625 -3.71875 L 3.359375 -1.234375 L 2.09375 -3.953125 L 2.625 -3.953125 L 2.625 -4.421875 C 2.296875 -4.40625 1.40625 -4.390625 1.390625 -4.390625 C 1.109375 -4.390625 0.671875 -4.40625 0.265625 -4.421875 L 0.265625 -3.953125 L 0.890625 -3.953125 L 2.640625 -0.203125 C 2.75 0.046875 2.890625 0.046875 3.015625 0.046875 C 3.1875 0.046875 3.28125 0.015625 3.390625 -0.203125 Z M 5.03125 -3.75 "/>
</g>
<g id="glyph-2-6">
<path d="M 4.15625 -0.421875 L 4.15625 0.0625 L 5.984375 0 L 5.984375 -0.46875 C 5.359375 -0.46875 5.296875 -0.46875 5.296875 -0.859375 L 5.296875 -6.90625 L 3.53125 -6.828125 L 3.53125 -6.359375 C 4.15625 -6.359375 4.21875 -6.359375 4.21875 -5.96875 L 4.21875 -4.03125 C 3.71875 -4.421875 3.203125 -4.484375 2.875 -4.484375 C 1.421875 -4.484375 0.375 -3.609375 0.375 -2.203125 C 0.375 -0.890625 1.296875 0.0625 2.765625 0.0625 C 3.375 0.0625 3.859375 -0.171875 4.15625 -0.421875 Z M 4.15625 -3.515625 L 4.15625 -1.03125 C 4.03125 -0.84375 3.625 -0.296875 2.859375 -0.296875 C 1.65625 -0.296875 1.65625 -1.5 1.65625 -2.203125 C 1.65625 -2.671875 1.65625 -3.21875 1.90625 -3.609375 C 2.203125 -4.015625 2.671875 -4.125 2.96875 -4.125 C 3.546875 -4.125 3.9375 -3.796875 4.15625 -3.515625 Z M 4.15625 -3.515625 "/>
</g>
<g id="glyph-2-7">
<path d="M 2.1875 -3.28125 C 2.1875 -3.46875 2.203125 -3.46875 2.34375 -3.609375 C 2.734375 -4.015625 3.25 -4.078125 3.46875 -4.078125 C 4.140625 -4.078125 4.703125 -3.46875 4.703125 -2.21875 C 4.703125 -0.8125 4 -0.296875 3.359375 -0.296875 C 3.21875 -0.296875 2.75 -0.296875 2.296875 -0.84375 C 2.1875 -0.96875 2.1875 -0.96875 2.1875 -1.171875 Z M 2.1875 -0.390625 C 2.625 -0.046875 3.0625 0.0625 3.46875 0.0625 C 4.953125 0.0625 5.96875 -0.84375 5.96875 -2.21875 C 5.96875 -3.546875 5.0625 -4.484375 3.640625 -4.484375 C 2.890625 -4.484375 2.359375 -4.171875 2.125 -3.984375 L 2.125 -4.484375 L 0.375 -4.40625 L 0.375 -3.9375 C 0.984375 -3.9375 1.0625 -3.9375 1.0625 -3.546875 L 1.0625 1.46875 L 0.375 1.46875 L 0.375 1.9375 C 0.640625 1.921875 1.25 1.90625 1.625 1.90625 C 2.015625 1.90625 2.59375 1.921875 2.875 1.9375 L 2.875 1.46875 L 2.1875 1.46875 Z M 2.1875 -0.390625 "/>
</g>
<g id="glyph-2-8">
<path d="M 3.921875 -3.953125 C 4.15625 -3.953125 4.21875 -3.953125 4.21875 -3.609375 L 4.21875 -0.46875 L 3.53125 -0.46875 L 3.53125 0 C 3.859375 -0.015625 4.328125 -0.03125 4.75 -0.03125 C 5.1875 -0.03125 5.640625 -0.015625 5.984375 0 L 5.984375 -0.46875 L 5.296875 -0.46875 L 5.296875 -4.515625 L 3.546875 -4.453125 C 3.53125 -4.453125 3.53125 -4.4375 3.53125 -4.421875 L 2.0625 -4.421875 L 2.0625 -5.390625 C 2.0625 -6.234375 2.75 -6.609375 3.65625 -6.609375 C 3.953125 -6.609375 4.15625 -6.5625 4.390625 -6.421875 C 4.21875 -6.375 3.953125 -6.203125 3.953125 -5.796875 C 3.953125 -5.421875 4.234375 -5.15625 4.59375 -5.15625 C 4.96875 -5.15625 5.25 -5.40625 5.25 -5.8125 C 5.25 -6.328125 4.8125 -6.96875 3.71875 -6.96875 C 2.484375 -6.96875 1.0625 -6.578125 1.0625 -5.421875 L 1.0625 -4.421875 L 0.3125 -4.421875 L 0.3125 -3.953125 L 1.0625 -3.953125 L 1.0625 -0.46875 L 0.375 -0.46875 L 0.375 0 C 0.6875 -0.015625 1.171875 -0.03125 1.59375 -0.03125 C 2.015625 -0.03125 2.484375 -0.015625 2.8125 0 L 2.8125 -0.46875 L 2.125 -0.46875 L 2.125 -3.953125 Z M 3.921875 -3.953125 "/>
</g>
<g id="glyph-2-9">
<path d="M 3.4375 -2.453125 L 4.609375 -3.75 C 4.734375 -3.875 4.796875 -3.953125 5.625 -3.953125 L 5.625 -4.421875 C 5.28125 -4.40625 4.75 -4.390625 4.703125 -4.390625 C 4.453125 -4.390625 3.96875 -4.40625 3.6875 -4.421875 L 3.6875 -3.953125 C 3.828125 -3.953125 3.9375 -3.9375 4.0625 -3.859375 C 4.015625 -3.796875 4.015625 -3.78125 3.984375 -3.75 L 3.140625 -2.8125 L 2.171875 -3.953125 L 2.5625 -3.953125 L 2.5625 -4.421875 C 2.3125 -4.40625 1.6875 -4.390625 1.359375 -4.390625 C 1.046875 -4.390625 0.59375 -4.40625 0.265625 -4.421875 L 0.265625 -3.953125 L 0.96875 -3.953125 L 2.53125 -2.125 L 1.21875 -0.65625 C 1.0625 -0.46875 0.703125 -0.46875 0.21875 -0.46875 L 0.21875 0 C 0.5625 -0.015625 1.078125 -0.03125 1.140625 -0.03125 C 1.390625 -0.03125 1.953125 -0.015625 2.15625 0 L 2.15625 -0.46875 C 1.984375 -0.46875 1.796875 -0.515625 1.796875 -0.578125 C 1.796875 -0.59375 1.796875 -0.59375 1.859375 -0.671875 L 2.828125 -1.765625 L 3.921875 -0.46875 L 3.53125 -0.46875 L 3.53125 0 C 3.796875 -0.015625 4.40625 -0.03125 4.734375 -0.03125 C 5.046875 -0.03125 5.5 -0.015625 5.828125 0 L 5.828125 -0.46875 L 5.109375 -0.46875 Z M 3.4375 -2.453125 "/>
</g>
<g id="glyph-2-10">
<path d="M 2.875 -3 L 4.640625 -3 C 6.015625 -3 7.171875 -3.71875 7.171875 -4.890625 C 7.171875 -5.984375 6.1875 -6.828125 4.53125 -6.828125 L 0.390625 -6.828125 L 0.390625 -6.359375 L 1.46875 -6.359375 L 1.46875 -0.46875 L 0.390625 -0.46875 L 0.390625 0 C 0.765625 -0.03125 1.734375 -0.03125 2.171875 -0.03125 C 2.59375 -0.03125 3.578125 -0.03125 3.953125 0 L 3.953125 -0.46875 L 2.875 -0.46875 Z M 4.15625 -3.40625 L 2.8125 -3.40625 L 2.8125 -6.359375 L 4.15625 -6.359375 C 5.65625 -6.359375 5.65625 -5.609375 5.65625 -4.890625 C 5.65625 -4.1875 5.65625 -3.40625 4.15625 -3.40625 Z M 4.15625 -3.40625 "/>
</g>
<g id="glyph-2-11">
<path d="M 3.171875 -1.734375 L 3.171875 -2.703125 L 0.125 -2.703125 L 0.125 -1.734375 Z M 3.171875 -1.734375 "/>
</g>
<g id="glyph-2-12">
<path d="M 2.234375 -4.484375 L 0.5 -4.40625 L 0.5 -3.9375 C 1.078125 -3.9375 1.15625 -3.9375 1.15625 -3.546875 L 1.15625 -0.46875 L 0.46875 -0.46875 L 0.46875 0 C 0.78125 -0.015625 1.265625 -0.03125 1.6875 -0.03125 C 1.984375 -0.03125 2.484375 -0.015625 2.84375 0 L 2.84375 -0.46875 L 2.234375 -0.46875 Z M 2.328125 -6.140625 C 2.328125 -6.578125 1.96875 -6.921875 1.546875 -6.921875 C 1.125 -6.921875 0.78125 -6.5625 0.78125 -6.140625 C 0.78125 -5.71875 1.125 -5.359375 1.546875 -5.359375 C 1.96875 -5.359375 2.328125 -5.703125 2.328125 -6.140625 Z M 2.328125 -6.140625 "/>
</g>
<g id="glyph-2-13">
<path d="M 1.140625 -3.546875 L 1.140625 -0.46875 L 0.453125 -0.46875 L 0.453125 0 C 0.734375 -0.015625 1.328125 -0.03125 1.703125 -0.03125 C 2.09375 -0.03125 2.671875 -0.015625 2.953125 0 L 2.953125 -0.46875 L 2.265625 -0.46875 L 2.265625 -2.546875 C 2.265625 -3.640625 3.125 -4.125 3.75 -4.125 C 4.09375 -4.125 4.296875 -3.90625 4.296875 -3.15625 L 4.296875 -0.46875 L 3.609375 -0.46875 L 3.609375 0 C 3.890625 -0.015625 4.484375 -0.03125 4.859375 -0.03125 C 5.25 -0.03125 5.84375 -0.015625 6.125 0 L 6.125 -0.46875 L 5.4375 -0.46875 L 5.4375 -3.046875 C 5.4375 -4.09375 4.890625 -4.484375 3.90625 -4.484375 C 2.953125 -4.484375 2.421875 -3.90625 2.15625 -3.40625 L 2.15625 -4.484375 L 0.453125 -4.40625 L 0.453125 -3.9375 C 1.0625 -3.9375 1.140625 -3.9375 1.140625 -3.546875 Z M 1.140625 -3.546875 "/>
</g>
<g id="glyph-2-14">
<path d="M 2.53125 -1.890625 C 1.65625 -1.890625 1.65625 -2.5625 1.65625 -3 C 1.65625 -3.453125 1.65625 -4.125 2.53125 -4.125 C 3.40625 -4.125 3.40625 -3.453125 3.40625 -3 C 3.40625 -2.5625 3.40625 -1.890625 2.53125 -1.890625 Z M 1.328125 -1.796875 C 1.78125 -1.546875 2.296875 -1.53125 2.53125 -1.53125 C 3.96875 -1.53125 4.515625 -2.3125 4.515625 -3 C 4.515625 -3.46875 4.265625 -3.796875 4.125 -3.96875 C 4.421875 -4.125 4.625 -4.140625 4.734375 -4.15625 C 4.71875 -4.09375 4.703125 -4.015625 4.703125 -3.953125 C 4.703125 -3.703125 4.859375 -3.515625 5.125 -3.515625 C 5.390625 -3.515625 5.546875 -3.71875 5.546875 -3.953125 C 5.546875 -4.1875 5.390625 -4.53125 4.921875 -4.53125 C 4.78125 -4.53125 4.3125 -4.5 3.875 -4.15625 C 3.6875 -4.265625 3.28125 -4.484375 2.53125 -4.484375 C 1.109375 -4.484375 0.5625 -3.703125 0.5625 -3 C 0.5625 -2.59375 0.75 -2.1875 1.078125 -1.953125 C 0.796875 -1.609375 0.734375 -1.28125 0.734375 -1.078125 C 0.734375 -0.921875 0.78125 -0.4375 1.171875 -0.125 C 1.046875 -0.09375 0.3125 0.125 0.3125 0.75 C 0.3125 1.25 0.859375 2 2.859375 2 C 4.625 2 5.390625 1.40625 5.390625 0.71875 C 5.390625 0.421875 5.3125 -0.203125 4.640625 -0.546875 C 4.09375 -0.828125 3.5 -0.828125 2.53125 -0.828125 C 2.28125 -0.828125 1.828125 -0.828125 1.765625 -0.84375 C 1.328125 -0.90625 1.21875 -1.28125 1.21875 -1.46875 C 1.21875 -1.5625 1.265625 -1.71875 1.328125 -1.796875 Z M 1.9375 0.125 L 3.109375 0.125 C 3.40625 0.125 4.53125 0.125 4.53125 0.75 C 4.53125 1.109375 4.15625 1.640625 2.859375 1.640625 C 1.65625 1.640625 1.171875 1.1875 1.171875 0.734375 C 1.171875 0.125 1.796875 0.125 1.9375 0.125 Z M 1.9375 0.125 "/>
</g>
<g id="glyph-2-15">
<path d="M 1.03125 -3.953125 L 1.03125 -1.21875 C 1.03125 -0.15625 1.890625 0.0625 2.59375 0.0625 C 3.359375 0.0625 3.796875 -0.5 3.796875 -1.234375 L 3.796875 -1.765625 L 3.328125 -1.765625 L 3.328125 -1.25 C 3.328125 -0.578125 3.015625 -0.34375 2.734375 -0.34375 C 2.15625 -0.34375 2.15625 -0.96875 2.15625 -1.203125 L 2.15625 -3.953125 L 3.609375 -3.953125 L 3.609375 -4.421875 L 2.15625 -4.421875 L 2.15625 -6.3125 L 1.6875 -6.3125 C 1.6875 -5.328125 1.1875 -4.34375 0.203125 -4.3125 L 0.203125 -3.953125 Z M 1.03125 -3.953125 "/>
</g>
<g id="glyph-2-16">
<path d="M 3.71875 -0.765625 C 3.71875 -0.453125 3.71875 0 4.75 0 L 5.234375 0 C 5.4375 0 5.546875 0 5.546875 -0.234375 C 5.546875 -0.46875 5.421875 -0.46875 5.296875 -0.46875 C 4.6875 -0.484375 4.6875 -0.609375 4.6875 -0.84375 L 4.6875 -2.96875 C 4.6875 -3.859375 3.984375 -4.515625 2.5 -4.515625 C 1.9375 -4.515625 0.71875 -4.46875 0.71875 -3.59375 C 0.71875 -3.15625 1.0625 -2.96875 1.328125 -2.96875 C 1.640625 -2.96875 1.953125 -3.171875 1.953125 -3.59375 C 1.953125 -3.890625 1.765625 -4.0625 1.734375 -4.078125 C 2.015625 -4.140625 2.34375 -4.15625 2.453125 -4.15625 C 3.203125 -4.15625 3.546875 -3.734375 3.546875 -2.96875 L 3.546875 -2.640625 C 2.84375 -2.609375 0.3125 -2.515625 0.3125 -1.078125 C 0.3125 -0.125 1.546875 0.0625 2.234375 0.0625 C 3.03125 0.0625 3.5 -0.34375 3.71875 -0.765625 Z M 3.546875 -2.328125 L 3.546875 -1.390625 C 3.546875 -0.421875 2.640625 -0.296875 2.390625 -0.296875 C 1.875 -0.296875 1.484375 -0.640625 1.484375 -1.078125 C 1.484375 -2.15625 3.0625 -2.296875 3.546875 -2.328125 Z M 3.546875 -2.328125 "/>
</g>
<g id="glyph-2-17">
<path d="M 5.03125 -3.75 C 5.109375 -3.875 5.140625 -3.953125 5.765625 -3.953125 L 5.765625 -4.421875 C 5.53125 -4.40625 5.234375 -4.390625 4.984375 -4.390625 C 4.734375 -4.390625 4.296875 -4.40625 4.078125 -4.421875 L 4.078125 -3.953125 C 4.09375 -3.953125 4.546875 -3.953125 4.546875 -3.828125 C 4.546875 -3.828125 4.515625 -3.71875 4.5 -3.71875 L 3.359375 -1.265625 L 2.09375 -3.953125 L 2.625 -3.953125 L 2.625 -4.421875 C 2.296875 -4.40625 1.40625 -4.390625 1.390625 -4.390625 C 1.109375 -4.390625 0.671875 -4.40625 0.265625 -4.421875 L 0.265625 -3.953125 L 0.890625 -3.953125 L 2.75 0 L 2.53125 0.484375 C 2.3125 0.953125 1.984375 1.625 1.28125 1.625 C 1.140625 1.625 1.125 1.625 1.046875 1.59375 C 1.140625 1.546875 1.359375 1.40625 1.359375 1.0625 C 1.359375 0.734375 1.125 0.5 0.78125 0.5 C 0.5 0.5 0.21875 0.6875 0.21875 1.078125 C 0.21875 1.578125 0.6875 1.984375 1.28125 1.984375 C 2.046875 1.984375 2.625 1.375 2.890625 0.8125 Z M 5.03125 -3.75 "/>
</g>
<g id="glyph-3-0">
<path d="M 3.296875 2.390625 C 3.296875 2.359375 3.296875 2.34375 3.125 2.171875 C 1.875 0.921875 1.5625 -0.96875 1.5625 -2.484375 C 1.5625 -4.21875 1.9375 -5.953125 3.171875 -7.203125 C 3.296875 -7.3125 3.296875 -7.328125 3.296875 -7.359375 C 3.296875 -7.4375 3.25 -7.46875 3.1875 -7.46875 C 3.09375 -7.46875 2.203125 -6.78125 1.609375 -5.53125 C 1.109375 -4.421875 0.984375 -3.328125 0.984375 -2.484375 C 0.984375 -1.71875 1.09375 -0.5 1.640625 0.609375 C 2.234375 1.84375 3.09375 2.484375 3.1875 2.484375 C 3.25 2.484375 3.296875 2.453125 3.296875 2.390625 Z M 3.296875 2.390625 "/>
</g>
<g id="glyph-3-1">
<path d="M 2.875 -2.484375 C 2.875 -3.265625 2.765625 -4.46875 2.21875 -5.59375 C 1.625 -6.8125 0.765625 -7.46875 0.671875 -7.46875 C 0.609375 -7.46875 0.5625 -7.421875 0.5625 -7.359375 C 0.5625 -7.328125 0.5625 -7.3125 0.75 -7.140625 C 1.734375 -6.15625 2.296875 -4.5625 2.296875 -2.484375 C 2.296875 -0.78125 1.9375 0.96875 0.703125 2.21875 C 0.5625 2.34375 0.5625 2.359375 0.5625 2.390625 C 0.5625 2.453125 0.609375 2.484375 0.671875 2.484375 C 0.765625 2.484375 1.65625 1.8125 2.25 0.546875 C 2.75 -0.546875 2.875 -1.65625 2.875 -2.484375 Z M 2.875 -2.484375 "/>
</g>
<g id="glyph-4-0">
<path d="M 1.796875 -0.015625 L 1.796875 -0.828125 L 0.96875 -0.828125 L 0.96875 0 L 1.21875 0 L 0.96875 1.25 L 1.375 1.25 Z M 1.796875 -0.015625 "/>
</g>
<g id="glyph-4-1">
<path d="M 1.734375 -3.84375 L 3.140625 -3.84375 L 3.140625 -4.421875 L 1.734375 -4.421875 L 1.734375 -5.6875 L 1.0625 -5.6875 L 1.0625 -4.421875 L 0.1875 -4.421875 L 0.1875 -3.84375 L 1.03125 -3.84375 L 1.03125 -1.1875 C 1.03125 -0.59375 1.171875 0.109375 1.84375 0.109375 C 2.546875 0.109375 3.0625 -0.140625 3.296875 -0.265625 L 3.140625 -0.859375 C 2.890625 -0.640625 2.5625 -0.53125 2.25 -0.53125 C 1.875 -0.53125 1.734375 -0.828125 1.734375 -1.359375 Z M 1.734375 -3.84375 "/>
</g>
<g id="glyph-4-2">
<path d="M 4.328125 -2.96875 C 4.328125 -3.625 4.1875 -4.53125 2.96875 -4.53125 C 2.34375 -4.53125 1.875 -4.21875 1.546875 -3.8125 L 1.546875 -6.90625 L 0.8125 -6.90625 L 0.8125 0 L 1.578125 0 L 1.578125 -2.4375 C 1.578125 -3.09375 1.828125 -3.921875 2.59375 -3.921875 C 3.546875 -3.921875 3.546875 -3.21875 3.546875 -2.890625 L 3.546875 0 L 4.328125 0 Z M 4.328125 -2.96875 "/>
</g>
<g id="glyph-4-3">
<path d="M 4.125 -2.1875 C 4.125 -2.515625 4.109375 -3.265625 3.71875 -3.859375 C 3.3125 -4.484375 2.703125 -4.59375 2.34375 -4.59375 C 1.25 -4.59375 0.34375 -3.53125 0.34375 -2.25 C 0.34375 -0.9375 1.296875 0.109375 2.5 0.109375 C 3.125 0.109375 3.6875 -0.125 4.078125 -0.40625 L 4.015625 -1.0625 C 3.390625 -0.53125 2.734375 -0.5 2.515625 -0.5 C 1.71875 -0.5 1.078125 -1.203125 1.046875 -2.1875 Z M 1.09375 -2.734375 C 1.25 -3.484375 1.78125 -3.984375 2.34375 -3.984375 C 2.859375 -3.984375 3.421875 -3.640625 3.546875 -2.734375 Z M 1.09375 -2.734375 "/>
</g>
<g id="glyph-4-4">
<path d="M 4.328125 -2.96875 C 4.328125 -3.625 4.1875 -4.53125 2.96875 -4.53125 C 2.0625 -4.53125 1.578125 -3.859375 1.515625 -3.765625 L 1.515625 -4.484375 L 0.8125 -4.484375 L 0.8125 0 L 1.578125 0 L 1.578125 -2.4375 C 1.578125 -3.09375 1.828125 -3.921875 2.59375 -3.921875 C 3.546875 -3.921875 3.546875 -3.21875 3.546875 -2.890625 L 3.546875 0 L 4.328125 0 Z M 4.328125 -2.96875 "/>
</g>
<g id="glyph-4-5">
<path d="M 5.796875 -1.140625 C 5.203125 -0.75 4.859375 -0.53125 3.875 -0.53125 C 2.453125 -0.53125 1.546875 -2.03125 1.546875 -3.46875 C 1.546875 -4.8125 2.375 -6.375 3.90625 -6.375 C 4.609375 -6.375 5.0625 -6.203125 5.609375 -5.859375 L 5.75 -6.671875 C 5.3125 -6.890625 4.546875 -7.015625 3.90625 -7.015625 C 2.0625 -7.015625 0.65625 -5.46875 0.65625 -3.375 C 0.65625 -1.796875 1.84375 0.109375 3.90625 0.109375 C 4.828125 0.109375 5.203125 -0.046875 5.859375 -0.453125 Z M 5.796875 -1.140625 "/>
</g>
<g id="glyph-4-6">
<path d="M 4.671875 -2.1875 C 4.671875 -3.515625 3.671875 -4.59375 2.484375 -4.59375 C 1.265625 -4.59375 0.296875 -3.5 0.296875 -2.1875 C 0.296875 -0.875 1.3125 0.109375 2.484375 0.109375 C 3.671875 0.109375 4.671875 -0.890625 4.671875 -2.1875 Z M 2.484375 -0.53125 C 1.796875 -0.53125 1.078125 -1.078125 1.078125 -2.296875 C 1.078125 -3.5 1.828125 -3.984375 2.484375 -3.984375 C 3.171875 -3.984375 3.890625 -3.46875 3.890625 -2.296875 C 3.890625 -1.109375 3.21875 -0.53125 2.484375 -0.53125 Z M 2.484375 -0.53125 "/>
</g>
<g id="glyph-4-7">
<path d="M 3.40625 -4.265625 C 2.890625 -4.515625 2.484375 -4.59375 1.984375 -4.59375 C 1.734375 -4.59375 0.328125 -4.59375 0.328125 -3.28125 C 0.328125 -2.796875 0.609375 -2.484375 0.859375 -2.296875 C 1.171875 -2.0625 1.390625 -2.03125 1.9375 -1.921875 C 2.296875 -1.84375 2.875 -1.734375 2.875 -1.203125 C 2.875 -0.515625 2.09375 -0.515625 1.9375 -0.515625 C 1.140625 -0.515625 0.578125 -0.890625 0.390625 -1 L 0.28125 -0.328125 C 0.59375 -0.171875 1.140625 0.109375 1.953125 0.109375 C 2.125 0.109375 2.671875 0.109375 3.109375 -0.203125 C 3.40625 -0.453125 3.578125 -0.84375 3.578125 -1.28125 C 3.578125 -1.828125 3.21875 -2.15625 3.1875 -2.1875 C 2.8125 -2.53125 2.53125 -2.59375 2.046875 -2.6875 C 1.5 -2.796875 1.03125 -2.890625 1.03125 -3.390625 C 1.03125 -4 1.75 -4 1.875 -4 C 2.203125 -4 2.734375 -3.96875 3.296875 -3.625 Z M 3.40625 -4.265625 "/>
</g>
<g id="glyph-4-8">
<path d="M 2.59375 -2.28125 L 4.40625 -4.421875 L 3.59375 -4.421875 L 2.265625 -2.78125 L 0.890625 -4.421875 L 0.0625 -4.421875 L 1.9375 -2.28125 L 0 0 L 0.8125 0 L 2.265625 -1.875 L 3.75 0 L 4.578125 0 Z M 2.59375 -2.28125 "/>
</g>
<g id="glyph-4-9">
<path d="M 4.328125 -4.421875 L 3.546875 -4.421875 L 3.546875 -1.53125 C 3.546875 -0.78125 3 -0.4375 2.359375 -0.4375 C 1.65625 -0.4375 1.578125 -0.703125 1.578125 -1.125 L 1.578125 -4.421875 L 0.8125 -4.421875 L 0.8125 -1.078125 C 0.8125 -0.375 1.03125 0.109375 1.859375 0.109375 C 2.390625 0.109375 3.09375 -0.046875 3.578125 -0.484375 L 3.578125 0 L 4.328125 0 Z M 4.328125 -4.421875 "/>
</g>
<g id="glyph-4-10">
<path d="M 1.59375 -0.453125 C 1.90625 -0.171875 2.34375 0.109375 2.9375 0.109375 C 3.90625 0.109375 4.78125 -0.859375 4.78125 -2.21875 C 4.78125 -3.40625 4.15625 -4.53125 3.1875 -4.53125 C 2.59375 -4.53125 2.015625 -4.3125 1.5625 -3.9375 L 1.5625 -4.421875 L 0.8125 -4.421875 L 0.8125 1.9375 L 1.59375 1.9375 Z M 1.59375 -3.3125 C 1.828125 -3.65625 2.21875 -3.890625 2.640625 -3.890625 C 3.40625 -3.890625 4 -3.140625 4 -2.21875 C 4 -1.1875 3.296875 -0.5 2.546875 -0.5 C 2.15625 -0.5 1.890625 -0.703125 1.6875 -0.96875 C 1.59375 -1.109375 1.59375 -1.140625 1.59375 -1.3125 Z M 1.59375 -3.3125 "/>
</g>
<g id="glyph-4-11">
<path d="M 1.75 -3.84375 L 2.84375 -3.84375 L 2.84375 -4.421875 L 1.71875 -4.421875 L 1.71875 -5.609375 C 1.71875 -6.34375 2.390625 -6.40625 2.640625 -6.40625 C 2.84375 -6.40625 3.109375 -6.390625 3.453125 -6.234375 L 3.453125 -6.90625 C 3.328125 -6.9375 3.03125 -7.015625 2.65625 -7.015625 C 1.71875 -7.015625 1 -6.3125 1 -5.3125 L 1 -4.421875 L 0.265625 -4.421875 L 0.265625 -3.84375 L 1 -3.84375 L 1 0 L 1.75 0 Z M 1.75 -3.84375 "/>
</g>
<g id="glyph-4-12">
<path d="M 1.5625 -2.125 C 1.5625 -3.125 2.28125 -3.84375 3.25 -3.859375 L 3.25 -4.53125 C 2.375 -4.515625 1.828125 -4.03125 1.515625 -3.578125 L 1.515625 -4.484375 L 0.8125 -4.484375 L 0.8125 0 L 1.5625 0 Z M 1.5625 -2.125 "/>
</g>
<g id="glyph-4-13">
<path d="M 7.09375 -2.96875 C 7.09375 -3.640625 6.9375 -4.53125 5.734375 -4.53125 C 5.140625 -4.53125 4.625 -4.25 4.25 -3.71875 C 3.984375 -4.46875 3.296875 -4.53125 2.96875 -4.53125 C 2.265625 -4.53125 1.796875 -4.125 1.515625 -3.765625 L 1.515625 -4.484375 L 0.8125 -4.484375 L 0.8125 0 L 1.578125 0 L 1.578125 -2.4375 C 1.578125 -3.109375 1.84375 -3.921875 2.59375 -3.921875 C 3.515625 -3.921875 3.5625 -3.28125 3.5625 -2.890625 L 3.5625 0 L 4.34375 0 L 4.34375 -2.4375 C 4.34375 -3.109375 4.609375 -3.921875 5.34375 -3.921875 C 6.265625 -3.921875 6.3125 -3.28125 6.3125 -2.890625 L 6.3125 0 L 7.09375 0 Z M 7.09375 -2.96875 "/>
</g>
<g id="glyph-4-14">
<path d="M 1.625 -6.765625 L 0.734375 -6.765625 L 0.734375 -5.875 L 1.625 -5.875 Z M 1.546875 -4.421875 L 0.8125 -4.421875 L 0.8125 0 L 1.546875 0 Z M 1.546875 -4.421875 "/>
</g>
<g id="glyph-4-15">
<path d="M 4.4375 -4.421875 L 3.6875 -4.421875 C 2.40625 -1.25 2.375 -0.796875 2.375 -0.5625 L 2.359375 -0.5625 C 2.296875 -1.234375 1.5 -3.078125 1.46875 -3.171875 L 0.921875 -4.421875 L 0.140625 -4.421875 L 2.0625 0 C 1.953125 0.3125 1.75 0.8125 1.71875 0.890625 C 1.453125 1.46875 1.28125 1.46875 1.140625 1.46875 C 0.984375 1.46875 0.671875 1.4375 0.375 1.3125 L 0.421875 1.953125 C 0.640625 2.015625 0.921875 2.046875 1.140625 2.046875 C 1.5 2.046875 1.859375 1.921875 2.265625 0.90625 Z M 4.4375 -4.421875 "/>
</g>
<g id="glyph-4-16">
<path d="M 3.96875 -2.875 C 3.96875 -3.890625 3.25 -4.59375 2.328125 -4.59375 C 1.6875 -4.59375 1.234375 -4.421875 0.765625 -4.15625 L 0.828125 -3.5 C 1.34375 -3.875 1.84375 -4 2.328125 -4 C 2.796875 -4 3.1875 -3.609375 3.1875 -2.859375 L 3.1875 -2.4375 C 1.703125 -2.421875 0.4375 -2 0.4375 -1.125 C 0.4375 -0.703125 0.703125 0.109375 1.578125 0.109375 C 1.71875 0.109375 2.640625 0.09375 3.21875 -0.359375 L 3.21875 0 L 3.96875 0 Z M 3.1875 -1.3125 C 3.1875 -1.125 3.1875 -0.875 2.859375 -0.6875 C 2.5625 -0.5 2.1875 -0.5 2.078125 -0.5 C 1.609375 -0.5 1.15625 -0.734375 1.15625 -1.140625 C 1.15625 -1.84375 2.765625 -1.90625 3.1875 -1.9375 Z M 3.1875 -1.3125 "/>
</g>
<g id="glyph-4-17">
<path d="M 1.796875 -0.828125 L 0.96875 -0.828125 L 0.96875 0 L 1.796875 0 Z M 1.796875 -0.828125 "/>
</g>
<g id="glyph-5-0">
<path d="M 1.640625 -3.421875 L 2.640625 -3.421875 L 2.640625 -3.984375 L 1.609375 -3.984375 L 1.609375 -5.015625 C 1.609375 -5.671875 2.203125 -5.734375 2.453125 -5.734375 C 2.53125 -5.734375 2.828125 -5.734375 3.1875 -5.59375 L 3.1875 -6.21875 C 3.078125 -6.25 2.796875 -6.328125 2.453125 -6.328125 C 1.59375 -6.328125 0.921875 -5.671875 0.921875 -4.765625 L 0.921875 -3.984375 L 0.25 -3.984375 L 0.25 -3.421875 L 0.921875 -3.421875 L 0.921875 0 L 1.640625 0 Z M 1.640625 -3.421875 "/>
</g>
<g id="glyph-5-1">
<path d="M 4.03125 -3.984375 L 3.28125 -3.984375 L 3.28125 -1.390625 C 3.28125 -0.671875 2.71875 -0.4375 2.171875 -0.4375 C 1.53125 -0.4375 1.46875 -0.640625 1.46875 -1.015625 L 1.46875 -3.984375 L 0.71875 -3.984375 L 0.71875 -0.984375 C 0.71875 -0.21875 1.03125 0.09375 1.671875 0.09375 C 2.1875 0.09375 2.890625 -0.046875 3.3125 -0.4375 L 3.3125 0 L 4.03125 0 Z M 4.03125 -3.984375 "/>
</g>
<g id="glyph-5-2">
<path d="M 1.625 -3.421875 L 2.921875 -3.421875 L 2.921875 -3.984375 L 1.625 -3.984375 L 1.625 -5.125 L 0.953125 -5.125 L 0.953125 -3.984375 L 0.171875 -3.984375 L 0.171875 -3.421875 L 0.9375 -3.421875 L 0.9375 -1.125 C 0.9375 -0.59375 1.046875 0.09375 1.703125 0.09375 C 2.09375 0.09375 2.5625 0.015625 3.0625 -0.234375 L 2.921875 -0.796875 C 2.6875 -0.625 2.375 -0.515625 2.09375 -0.515625 C 1.734375 -0.515625 1.625 -0.828125 1.625 -1.296875 Z M 1.625 -3.421875 "/>
</g>
<g id="glyph-5-3">
<path d="M 1.46875 -1.90625 C 1.46875 -2.859375 2.203125 -3.421875 3.015625 -3.4375 L 3.015625 -4.078125 C 2.375 -4.078125 1.78125 -3.75 1.40625 -3.21875 L 1.40625 -4.03125 L 0.75 -4.03125 L 0.75 0 L 1.46875 0 Z M 1.46875 -1.90625 "/>
</g>
<g id="glyph-5-4">
<path d="M 3.828125 -1.96875 C 3.828125 -2.25 3.828125 -2.921875 3.46875 -3.46875 C 3.09375 -4.03125 2.515625 -4.140625 2.171875 -4.140625 C 1.140625 -4.140625 0.3125 -3.171875 0.3125 -2.03125 C 0.3125 -0.84375 1.1875 0.09375 2.3125 0.09375 C 2.75 0.09375 3.265625 -0.015625 3.78125 -0.34375 L 3.734375 -0.953125 C 3.171875 -0.5625 2.640625 -0.484375 2.328125 -0.484375 C 1.578125 -0.484375 1 -1.140625 0.984375 -1.96875 Z M 1.03125 -2.5 C 1.171875 -3.0625 1.609375 -3.546875 2.171875 -3.546875 C 2.515625 -3.546875 3.125 -3.40625 3.296875 -2.5 Z M 1.03125 -2.5 "/>
</g>
<g id="glyph-5-5">
<path d="M 1.53125 -6.140625 L 0.65625 -6.140625 L 0.65625 -5.28125 L 1.53125 -5.28125 Z M 1.453125 -3.984375 L 0.734375 -3.984375 L 0.734375 0 L 1.453125 0 Z M 1.453125 -3.984375 "/>
</g>
<g id="glyph-5-6">
<path d="M 4.03125 -2.65625 C 4.03125 -3.328125 3.84375 -4.078125 2.765625 -4.078125 C 2.046875 -4.078125 1.625 -3.671875 1.421875 -3.40625 L 1.421875 -4.03125 L 0.71875 -4.03125 L 0.71875 0 L 1.46875 0 L 1.46875 -2.1875 C 1.46875 -2.78125 1.703125 -3.5 2.390625 -3.5 C 3.28125 -3.5 3.28125 -2.859375 3.28125 -2.59375 L 3.28125 0 L 4.03125 0 Z M 4.03125 -2.65625 "/>
</g>
<g id="glyph-5-7">
<path d="M 1.484375 -0.40625 C 1.828125 -0.09375 2.265625 0.09375 2.734375 0.09375 C 3.640625 0.09375 4.4375 -0.796875 4.4375 -2 C 4.4375 -3.078125 3.859375 -4.078125 3 -4.078125 C 2.75 -4.078125 2.078125 -4.03125 1.46875 -3.546875 L 1.46875 -3.984375 L 0.75 -3.984375 L 0.75 1.734375 L 1.484375 1.734375 Z M 1.484375 -2.984375 C 1.609375 -3.140625 1.9375 -3.46875 2.453125 -3.46875 C 3.125 -3.46875 3.6875 -2.828125 3.6875 -1.984375 C 3.6875 -1.125 3.0625 -0.484375 2.359375 -0.484375 C 2.078125 -0.484375 1.75 -0.59375 1.484375 -1.046875 Z M 1.484375 -2.984375 "/>
</g>
<g id="glyph-5-8">
<path d="M 4.328125 -1.96875 C 4.328125 -3.140625 3.4375 -4.140625 2.296875 -4.140625 C 1.1875 -4.140625 0.265625 -3.171875 0.265625 -1.96875 C 0.265625 -0.796875 1.203125 0.09375 2.296875 0.09375 C 3.40625 0.09375 4.328125 -0.8125 4.328125 -1.96875 Z M 2.3125 -0.515625 C 1.609375 -0.515625 1.015625 -1.046875 1.015625 -2.0625 C 1.015625 -3.109375 1.6875 -3.546875 2.296875 -3.546875 C 2.9375 -3.546875 3.59375 -3.09375 3.59375 -2.0625 C 3.59375 -1.015625 2.953125 -0.515625 2.3125 -0.515625 Z M 2.3125 -0.515625 "/>
</g>
<g id="glyph-5-9">
<path d="M 4.109375 -3.984375 L 3.40625 -3.984375 C 2.71875 -2.34375 2.234375 -1.15625 2.1875 -0.53125 C 2.15625 -0.9375 1.78125 -1.859375 1.671875 -2.125 C 1.3125 -3.046875 1.15625 -3.34375 0.875 -3.984375 L 0.125 -3.984375 L 1.921875 0 L 1.59375 0.796875 C 1.359375 1.296875 1.1875 1.296875 1.0625 1.296875 C 0.921875 1.296875 0.59375 1.265625 0.328125 1.140625 L 0.390625 1.765625 C 0.40625 1.78125 0.75 1.84375 1.046875 1.84375 C 1.296875 1.84375 1.671875 1.84375 2.125 0.765625 Z M 4.109375 -3.984375 "/>
</g>
<g id="glyph-5-10">
<path d="M 3.6875 -2.59375 C 3.6875 -3.484375 3.046875 -4.140625 2.15625 -4.140625 C 1.5625 -4.140625 1.140625 -3.984375 0.703125 -3.734375 L 0.765625 -3.109375 C 1.203125 -3.4375 1.65625 -3.5625 2.140625 -3.5625 C 2.640625 -3.5625 2.953125 -3.171875 2.953125 -2.578125 L 2.953125 -2.203125 C 1.40625 -2.171875 0.390625 -1.765625 0.390625 -1.046875 C 0.390625 -0.625 0.671875 0.09375 1.453125 0.09375 C 1.625 0.09375 2.40625 0.078125 2.984375 -0.34375 L 2.984375 0 L 3.6875 0 Z M 2.953125 -1.25 C 2.953125 -1.0625 2.953125 -0.84375 2.625 -0.65625 C 2.40625 -0.515625 2.109375 -0.484375 1.921875 -0.484375 C 1.46875 -0.484375 1.078125 -0.703125 1.078125 -1.0625 C 1.078125 -1.6875 2.828125 -1.71875 2.953125 -1.71875 Z M 2.953125 -1.25 "/>
</g>
<g id="glyph-5-11">
<path d="M 4.109375 -3.984375 L 3.40625 -3.984375 L 2.703125 -2.15625 C 2.515625 -1.6875 2.1875 -0.828125 2.140625 -0.5 L 2.125 -0.5 C 2.109375 -0.640625 2.078125 -0.8125 1.59375 -2.109375 C 1.3125 -2.828125 0.875 -3.921875 0.859375 -3.984375 L 0.125 -3.984375 L 1.703125 0 L 2.53125 0 Z M 4.109375 -3.984375 "/>
</g>
<g id="glyph-5-12">
<path d="M 1.453125 -6.21875 L 0.734375 -6.21875 L 0.734375 0 L 1.453125 0 Z M 1.453125 -6.21875 "/>
</g>
<g id="glyph-5-13">
<path d="M 1.46875 -6.21875 L 0.75 -6.21875 L 0.75 0 L 1.484375 0 L 1.484375 -0.421875 C 1.609375 -0.296875 2.0625 0.09375 2.71875 0.09375 C 3.65625 0.09375 4.4375 -0.8125 4.4375 -2 C 4.4375 -3.078125 3.84375 -4.078125 2.953125 -4.078125 C 2.71875 -4.078125 2.078125 -4.03125 1.46875 -3.5625 Z M 1.484375 -3 C 1.625 -3.1875 1.953125 -3.5 2.453125 -3.5 C 3 -3.5 3.6875 -3.125 3.6875 -2 C 3.6875 -0.84375 2.921875 -0.484375 2.375 -0.484375 C 1.796875 -0.484375 1.53125 -0.953125 1.484375 -1.046875 Z M 1.484375 -3 "/>
</g>
<g id="glyph-5-14">
<path d="M 3.578125 -5.5625 C 4.1875 -5.5625 4.8125 -5.546875 5.421875 -5.546875 L 5.953125 -5.546875 L 5.953125 -6.171875 L 0.328125 -6.171875 L 0.328125 -5.546875 L 0.875 -5.546875 C 1.484375 -5.546875 2.109375 -5.5625 2.71875 -5.5625 L 2.71875 0 L 3.578125 0 Z M 3.578125 -5.5625 "/>
</g>
<g id="glyph-5-15">
<path d="M 4.03125 -2.65625 C 4.03125 -3.328125 3.84375 -4.078125 2.765625 -4.078125 C 2.25 -4.078125 1.765625 -3.84375 1.4375 -3.4375 L 1.4375 -6.21875 L 0.71875 -6.21875 L 0.71875 0 L 1.46875 0 L 1.46875 -2.1875 C 1.46875 -2.78125 1.703125 -3.5 2.390625 -3.5 C 3.28125 -3.5 3.28125 -2.859375 3.28125 -2.59375 L 3.28125 0 L 4.03125 0 Z M 4.03125 -2.65625 "/>
</g>
<g id="glyph-5-16">
<path d="M 3.171875 -3.84375 C 2.609375 -4.09375 2.203125 -4.140625 1.828125 -4.140625 C 1.625 -4.140625 0.3125 -4.140625 0.3125 -2.953125 C 0.3125 -2.515625 0.5625 -2.25 0.65625 -2.15625 C 1 -1.859375 1.234375 -1.8125 1.84375 -1.6875 C 2.140625 -1.640625 2.640625 -1.546875 2.640625 -1.078125 C 2.640625 -0.5 1.921875 -0.5 1.796875 -0.5 C 1.28125 -0.5 0.765625 -0.6875 0.375 -0.953125 L 0.265625 -0.296875 C 0.796875 -0.015625 1.34375 0.09375 1.796875 0.09375 C 2.390625 0.09375 3.3125 -0.09375 3.3125 -1.15625 C 3.3125 -1.46875 3.1875 -1.78125 2.875 -2.046875 C 2.578125 -2.3125 2.3125 -2.375 1.75 -2.46875 C 1.421875 -2.53125 0.984375 -2.625 0.984375 -3.046875 C 0.984375 -3.5625 1.609375 -3.5625 1.75 -3.5625 C 2.40625 -3.5625 2.796875 -3.359375 3.046875 -3.21875 Z M 3.171875 -3.84375 "/>
</g>
<g id="glyph-5-17">
<path d="M 3.78125 -0.96875 C 3.34375 -0.671875 2.875 -0.515625 2.328125 -0.515625 C 1.5625 -0.515625 1.0625 -1.140625 1.0625 -2 C 1.0625 -2.6875 1.40625 -3.53125 2.375 -3.53125 C 2.9375 -3.53125 3.21875 -3.421875 3.671875 -3.109375 L 3.78125 -3.734375 C 3.28125 -4.03125 3 -4.140625 2.359375 -4.140625 C 1.078125 -4.140625 0.328125 -3.0625 0.328125 -1.984375 C 0.328125 -0.875 1.15625 0.09375 2.328125 0.09375 C 2.953125 0.09375 3.421875 -0.09375 3.828125 -0.328125 Z M 3.78125 -0.96875 "/>
</g>
<g id="glyph-5-18">
<path d="M 5.53125 -2.6875 L 3.59375 -2.6875 L 3.59375 -2.09375 L 4.765625 -2.09375 L 4.765625 -0.6875 C 4.390625 -0.609375 4.015625 -0.515625 3.609375 -0.515625 C 2.25 -0.515625 1.453125 -1.890625 1.453125 -3.125 C 1.453125 -4.390625 2.25 -5.71875 3.625 -5.71875 C 4.28125 -5.71875 4.90625 -5.46875 5.3125 -5.109375 L 5.453125 -5.890625 C 5.046875 -6.140625 4.375 -6.328125 3.5625 -6.328125 C 1.84375 -6.328125 0.59375 -4.78125 0.59375 -3.125 C 0.59375 -1.4375 1.84375 0.09375 3.5625 0.09375 C 4.28125 0.09375 4.890625 -0.0625 5.53125 -0.34375 Z M 5.53125 -2.6875 "/>
</g>
<g id="glyph-5-19">
<path d="M 4.015625 -6.21875 L 3.296875 -6.21875 L 3.296875 -3.59375 C 2.796875 -4.015625 2.21875 -4.078125 1.921875 -4.078125 C 1.015625 -4.078125 0.328125 -3.140625 0.328125 -1.984375 C 0.328125 -0.828125 1.015625 0.09375 1.890625 0.09375 C 2.15625 0.09375 2.71875 0.03125 3.265625 -0.46875 L 3.265625 0 L 4.015625 0 Z M 3.265625 -1.265625 C 3.265625 -1.09375 3.265625 -1.078125 3.171875 -0.953125 C 2.921875 -0.625 2.625 -0.484375 2.296875 -0.484375 C 1.71875 -0.484375 1.0625 -0.90625 1.0625 -1.984375 C 1.0625 -3.125 1.828125 -3.5 2.390625 -3.5 C 2.8125 -3.5 3.09375 -3.265625 3.265625 -3.03125 Z M 3.265625 -1.265625 "/>
</g>
<g id="glyph-5-20">
<path d="M 2.1875 -3.765625 C 1.734375 -3.875 1.28125 -4.234375 1.28125 -4.75 C 1.28125 -5.265625 1.765625 -5.78125 2.578125 -5.78125 C 3.234375 -5.78125 3.671875 -5.59375 4.140625 -5.203125 L 4.28125 -5.984375 C 3.84375 -6.203125 3.40625 -6.421875 2.59375 -6.421875 C 1.3125 -6.421875 0.515625 -5.53125 0.515625 -4.640625 C 0.515625 -4.40625 0.5625 -4.046875 0.859375 -3.640625 C 1.28125 -3.109375 1.859375 -2.96875 2.21875 -2.875 C 2.34375 -2.84375 2.90625 -2.703125 2.984375 -2.6875 C 3.390625 -2.5625 3.84375 -2.171875 3.84375 -1.609375 C 3.84375 -1.015625 3.328125 -0.46875 2.53125 -0.46875 C 1.796875 -0.46875 1.125 -0.75 0.5625 -1.203125 L 0.40625 -0.421875 C 1.296875 0.125 2.109375 0.203125 2.53125 0.203125 C 3.765625 0.203125 4.59375 -0.71875 4.59375 -1.71875 C 4.59375 -2.71875 3.765625 -3.390625 3.09375 -3.546875 Z M 2.1875 -3.765625 "/>
</g>
<g id="glyph-5-21">
<path d="M 1.65625 -0.765625 L 0.890625 -0.765625 L 0.890625 0 L 1.65625 0 Z M 1.65625 -0.765625 "/>
</g>
<g id="glyph-5-22">
<path d="M 3.484375 -6.21875 L 2.65625 -6.21875 L 0.265625 0 L 0.96875 0 L 1.65625 -1.78125 L 4.3125 -1.78125 L 5 0 L 5.890625 0 Z M 2.984375 -5.5625 L 4.09375 -2.3125 L 1.859375 -2.3125 Z M 2.984375 -5.5625 "/>
</g>
<g id="glyph-5-23">
<path d="M 4.375 -4.078125 C 4.203125 -4.078125 3.59375 -4.078125 2.9375 -3.796875 C 2.796875 -3.890625 2.46875 -4.078125 2.046875 -4.078125 C 1.21875 -4.078125 0.5625 -3.40625 0.5625 -2.625 C 0.5625 -2.390625 0.625 -2.0625 0.875 -1.71875 C 0.703125 -1.484375 0.609375 -1.21875 0.609375 -0.96875 C 0.609375 -0.71875 0.703125 -0.46875 0.828125 -0.296875 C 0.375 0 0.265625 0.390625 0.265625 0.640625 C 0.265625 1.296875 1.140625 1.84375 2.296875 1.84375 C 3.453125 1.84375 4.34375 1.296875 4.34375 0.625 C 4.34375 -0.625 2.859375 -0.640625 2.453125 -0.640625 L 1.625 -0.640625 C 1.515625 -0.640625 1.109375 -0.640625 1.109375 -1.109375 C 1.109375 -1.28125 1.140625 -1.34375 1.1875 -1.40625 C 1.4375 -1.25 1.734375 -1.140625 2.046875 -1.140625 C 2.875 -1.140625 3.53125 -1.828125 3.53125 -2.609375 C 3.53125 -2.921875 3.4375 -3.171875 3.296875 -3.40625 C 3.25 -3.453125 3.25 -3.46875 3.25 -3.46875 C 3.25 -3.515625 3.6875 -3.515625 3.8125 -3.515625 C 3.890625 -3.515625 4.21875 -3.515625 4.46875 -3.484375 Z M 2.046875 -1.6875 C 1.625 -1.6875 1.234375 -1.953125 1.234375 -2.609375 C 1.234375 -3.34375 1.6875 -3.546875 2.046875 -3.546875 C 2.453125 -3.546875 2.859375 -3.28125 2.859375 -2.625 C 2.859375 -1.890625 2.40625 -1.6875 2.046875 -1.6875 Z M 2.453125 0.046875 C 2.640625 0.046875 3.671875 0.046875 3.671875 0.640625 C 3.671875 1.03125 3.015625 1.3125 2.3125 1.3125 C 1.609375 1.3125 0.921875 1.046875 0.921875 0.625 C 0.921875 0.609375 0.921875 0.046875 1.609375 0.046875 Z M 2.453125 0.046875 "/>
</g>
<g id="glyph-5-24">
<path d="M 6.578125 -2.65625 C 6.578125 -3.328125 6.40625 -4.078125 5.3125 -4.078125 C 4.5625 -4.078125 4.140625 -3.625 3.921875 -3.34375 C 3.859375 -3.53125 3.671875 -4.078125 2.765625 -4.078125 C 2.046875 -4.078125 1.625 -3.671875 1.421875 -3.40625 L 1.421875 -4.03125 L 0.71875 -4.03125 L 0.71875 0 L 1.46875 0 L 1.46875 -2.1875 C 1.46875 -2.78125 1.703125 -3.5 2.390625 -3.5 C 3.28125 -3.5 3.28125 -2.859375 3.28125 -2.59375 L 3.28125 0 L 4.03125 0 L 4.03125 -2.1875 C 4.03125 -2.78125 4.265625 -3.5 4.9375 -3.5 C 5.84375 -3.5 5.84375 -2.859375 5.84375 -2.59375 L 5.84375 0 L 6.578125 0 Z M 6.578125 -2.65625 "/>
</g>
<g id="glyph-5-25">
<path d="M 6.15625 -3.984375 L 5.46875 -3.984375 C 5.265625 -3.34375 4.53125 -1.046875 4.46875 -0.5 L 4.453125 -0.5 C 4.40625 -0.875 4.21875 -1.484375 4.0625 -1.984375 L 3.4375 -3.984375 L 2.78125 -3.984375 C 2.5 -3.109375 1.859375 -1.09375 1.828125 -0.53125 L 1.8125 -0.53125 C 1.78125 -0.859375 1.546875 -1.671875 1.375 -2.234375 L 0.84375 -3.984375 L 0.125 -3.984375 L 1.390625 0 L 2.140625 0 C 2.28125 -0.5 2.625 -1.53125 2.671875 -1.734375 C 2.859375 -2.375 3.078125 -3.078125 3.109375 -3.46875 C 3.125 -3.296875 3.203125 -2.953125 3.234375 -2.859375 C 3.328125 -2.46875 3.328125 -2.453125 3.40625 -2.21875 L 4.078125 0 L 4.890625 0 Z M 6.15625 -3.984375 "/>
</g>
</g>
<clipPath id="clip-0">
<path clip-rule="nonzero" d="M 20 166 L 92 166 L 92 219.847656 L 20 219.847656 Z M 20 166 "/>
</clipPath>
<clipPath id="clip-1">
<path clip-rule="nonzero" d="M 66 166 L 138 166 L 138 219.847656 L 66 219.847656 Z M 66 166 "/>
</clipPath>
<clipPath id="clip-2">
<path clip-rule="nonzero" d="M 112 166 L 184 166 L 184 219.847656 L 112 219.847656 Z M 112 166 "/>
</clipPath>
<clipPath id="clip-3">
<path clip-rule="nonzero" d="M 0.015625 19 L 49 19 L 49 65 L 0.015625 65 Z M 0.015625 19 "/>
</clipPath>
<clipPath id="clip-4">
<path clip-rule="nonzero" d="M 0.015625 29 L 35 29 L 35 69 L 0.015625 69 Z M 0.015625 29 "/>
</clipPath>
<clipPath id="clip-5">
<path clip-rule="nonzero" d="M 0.015625 150 L 66 150 L 66 198 L 0.015625 198 Z M 0.015625 150 "/>
</clipPath>
</defs>
<path fill-rule="nonzero" fill="rgb(100%, 94.999695%, 89.99939%)" fill-opacity="1" stroke-width="1.19553" stroke-linecap="butt" stroke-linejoin="miter" stroke="rgb(100%, 72.499084%, 44.999695%)" stroke-opacity="1" stroke-miterlimit="10" d="M 10.456411 12.757617 L -10.457159 12.757617 C -14.857137 12.757617 -18.424792 9.186055 -18.424792 4.786077 L -18.424792 -4.787586 C -18.424792 -9.187564 -14.857137 -12.755219 -10.457159 -12.755219 L 10.456411 -12.755219 C 14.856388 -12.755219 18.424043 -9.187564 18.424043 -4.787586 L 18.424043 4.786077 C 18.424043 9.186055 14.856388 12.757617 10.456411 12.757617 Z M 10.456411 12.757617 " transform="matrix(0.99965, 0, 0, -0.99965, 49.820687, 23.307839)"/>
<g fill="rgb(0%, 0%, 0%)" fill-opacity="1">
<use xlink:href="#glyph-0-0" x="45.872069" y="25.844951"/>
</g>
<g fill="rgb(0%, 0%, 0%)" fill-opacity="1">
<use xlink:href="#glyph-1-0" x="49.302868" y="27.339428"/>
</g>
<path fill-rule="nonzero" fill="rgb(100%, 94.999695%, 89.99939%)" fill-opacity="1" stroke-width="1.19553" stroke-linecap="butt" stroke-linejoin="miter" stroke="rgb(100%, 72.499084%, 44.999695%)" stroke-opacity="1" stroke-miterlimit="10" d="M 56.472516 12.757617 L 35.562854 12.757617 C 31.158969 12.757617 27.591314 9.186055 27.591314 4.786077 L 27.591314 -4.787586 C 27.591314 -9.187564 31.158969 -12.755219 35.562854 -12.755219 L 56.472516 -12.755219 C 60.872494 -12.755219 64.444056 -9.187564 64.444056 -4.787586 L 64.444056 4.786077 C 64.444056 9.186055 60.872494 12.757617 56.472516 12.757617 Z M 56.472516 12.757617 " transform="matrix(0.99965, 0, 0, -0.99965, 49.820687, 23.307839)"/>
<g fill="rgb(0%, 0%, 0%)" fill-opacity="1">
<use xlink:href="#glyph-0-0" x="91.871963" y="25.844951"/>
</g>
<g fill="rgb(0%, 0%, 0%)" fill-opacity="1">
<use xlink:href="#glyph-1-1" x="95.302762" y="27.339428"/>
</g>
<path fill-rule="nonzero" fill="rgb(100%, 94.999695%, 89.99939%)" fill-opacity="1" stroke-width="1.19553" stroke-linecap="butt" stroke-linejoin="miter" stroke="rgb(100%, 72.499084%, 44.999695%)" stroke-opacity="1" stroke-miterlimit="10" d="M 102.488622 12.757617 L 81.57896 12.757617 C 77.175075 12.757617 73.60742 9.186055 73.60742 4.786077 L 73.60742 -4.787586 C 73.60742 -9.187564 77.175075 -12.755219 81.57896 -12.755219 L 102.488622 -12.755219 C 106.888599 -12.755219 110.460162 -9.187564 110.460162 -4.787586 L 110.460162 4.786077 C 110.460162 9.186055 106.888599 12.757617 102.488622 12.757617 Z M 102.488622 12.757617 " transform="matrix(0.99965, 0, 0, -0.99965, 49.820687, 23.307839)"/>
<g fill="rgb(0%, 0%, 0%)" fill-opacity="1">
<use xlink:href="#glyph-0-0" x="137.871858" y="25.844951"/>
</g>
<g fill="rgb(0%, 0%, 0%)" fill-opacity="1">
<use xlink:href="#glyph-1-2" x="141.302657" y="27.338428"/>
</g>
<path fill="none" stroke-width="1.19553" stroke-linecap="butt" stroke-linejoin="miter" stroke="rgb(100%, 44.999695%, 44.999695%)" stroke-opacity="1" stroke-dasharray="2.98883 2.98883" stroke-miterlimit="10" d="M 148.504728 12.757617 L 127.595065 12.757617 C 123.19118 12.757617 119.623525 9.186055 119.623525 4.786077 L 119.623525 -4.787586 C 119.623525 -9.187564 123.19118 -12.755219 127.595065 -12.755219 L 148.504728 -12.755219 C 152.908613 -12.755219 156.476268 -9.187564 156.476268 -4.787586 L 156.476268 4.786077 C 156.476268 9.186055 152.908613 12.757617 148.504728 12.757617 Z M 148.504728 12.757617 " transform="matrix(0.99965, 0, 0, -0.99965, 49.820687, 23.307839)"/>
<g fill="rgb(100%, 44.999695%, 44.999695%)" fill-opacity="1">
<use xlink:href="#glyph-0-0" x="183.871752" y="25.844951"/>
</g>
<g fill="rgb(100%, 44.999695%, 44.999695%)" fill-opacity="1">
<use xlink:href="#glyph-1-3" x="187.302551" y="27.338428"/>
</g>
<path fill-rule="nonzero" fill="rgb(93.998718%, 93.998718%, 100%)" fill-opacity="1" stroke-width="0.3985" stroke-linecap="butt" stroke-linejoin="miter" stroke="rgb(54.998779%, 54.998779%, 100%)" stroke-opacity="1" stroke-miterlimit="10" d="M 121.135773 -29.491545 L -29.104311 -29.491545 C -34.606236 -29.491545 -39.064828 -33.954045 -39.064828 -39.45597 L -39.064828 -62.811801 C -39.064828 -68.313727 -34.606236 -72.776226 -29.104311 -72.776226 L 121.135773 -72.776226 C 126.637699 -72.776226 131.100198 -68.313727 131.100198 -62.811801 L 131.100198 -39.45597 C 131.100198 -33.954045 126.637699 -29.491545 121.135773 -29.491545 Z M 121.135773 -29.491545 " transform="matrix(0.99965, 0, 0, -0.99965, 49.820687, 23.307839)"/>
<g fill="rgb(0%, 0%, 0%)" fill-opacity="1">
<use xlink:href="#glyph-2-0" x="56.399383" y="69.665609"/>
<use xlink:href="#glyph-2-1" x="65.003061" y="69.665609"/>
<use xlink:href="#glyph-2-2" x="71.365938" y="69.665609"/>
<use xlink:href="#glyph-2-3" x="75.883392" y="69.665609"/>
<use xlink:href="#glyph-2-4" x="81.132841" y="69.665609"/>
<use xlink:href="#glyph-2-5" x="85.849477" y="69.665609"/>
</g>
<g fill="rgb(0%, 0%, 0%)" fill-opacity="1">
<use xlink:href="#glyph-2-3" x="91.574971" y="69.665609"/>
<use xlink:href="#glyph-2-6" x="96.824419" y="69.665609"/>
</g>
<g fill="rgb(0%, 0%, 0%)" fill-opacity="1">
<use xlink:href="#glyph-2-7" x="106.503681" y="69.665609"/>
<use xlink:href="#glyph-2-4" x="112.866559" y="69.665609"/>
<use xlink:href="#glyph-2-3" x="117.583195" y="69.665609"/>
<use xlink:href="#glyph-2-8" x="122.832643" y="69.665609"/>
<use xlink:href="#glyph-2-9" x="129.19552" y="69.665609"/>
</g>
<g fill="rgb(0%, 0%, 0%)" fill-opacity="1">
<use xlink:href="#glyph-3-0" x="26.146975" y="83.608727"/>
</g>
<g fill="rgb(0%, 0%, 0%)" fill-opacity="1">
<use xlink:href="#glyph-0-0" x="30.019619" y="83.608727"/>
</g>
<g fill="rgb(0%, 0%, 0%)" fill-opacity="1">
<use xlink:href="#glyph-1-0" x="33.451418" y="85.102204"/>
</g>
<g fill="rgb(0%, 0%, 0%)" fill-opacity="1">
<use xlink:href="#glyph-3-1" x="37.918854" y="83.608727"/>
</g>
<g fill="rgb(0%, 0%, 0%)" fill-opacity="1">
<use xlink:href="#glyph-4-0" x="41.791498" y="83.608727"/>
</g>
<g fill="rgb(0%, 0%, 0%)" fill-opacity="1">
<use xlink:href="#glyph-4-1" x="47.874524" y="83.608727"/>
<use xlink:href="#glyph-4-2" x="51.47076" y="83.608727"/>
<use xlink:href="#glyph-4-3" x="56.616634" y="83.608727"/>
<use xlink:href="#glyph-4-4" x="61.042463" y="83.608727"/>
</g>
<g fill="rgb(0%, 0%, 0%)" fill-opacity="1">
<use xlink:href="#glyph-3-0" x="69.510793" y="83.608727"/>
</g>
<g fill="rgb(0%, 0%, 0%)" fill-opacity="1">
<use xlink:href="#glyph-0-0" x="73.383437" y="83.608727"/>
</g>
<g fill="rgb(0%, 0%, 0%)" fill-opacity="1">
<use xlink:href="#glyph-1-0" x="76.815235" y="85.102204"/>
</g>
<g fill="rgb(0%, 0%, 0%)" fill-opacity="1">
<use xlink:href="#glyph-0-1" x="81.282671" y="83.608727"/>
</g>
<g fill="rgb(0%, 0%, 0%)" fill-opacity="1">
<use xlink:href="#glyph-0-0" x="85.712485" y="83.608727"/>
</g>
<g fill="rgb(0%, 0%, 0%)" fill-opacity="1">
<use xlink:href="#glyph-1-1" x="89.13992" y="85.102204"/>
</g>
<g fill="rgb(0%, 0%, 0%)" fill-opacity="1">
<use xlink:href="#glyph-3-1" x="93.607356" y="83.608727"/>
</g>
<g fill="rgb(0%, 0%, 0%)" fill-opacity="1">
<use xlink:href="#glyph-4-0" x="97.481" y="83.608727"/>
</g>
<g fill="rgb(0%, 0%, 0%)" fill-opacity="1">
<use xlink:href="#glyph-4-1" x="103.564026" y="83.608727"/>
<use xlink:href="#glyph-4-2" x="107.160262" y="83.608727"/>
<use xlink:href="#glyph-4-3" x="112.306135" y="83.608727"/>
<use xlink:href="#glyph-4-4" x="116.731965" y="83.608727"/>
</g>
<g fill="rgb(0%, 0%, 0%)" fill-opacity="1">
<use xlink:href="#glyph-3-0" x="125.200294" y="83.608727"/>
</g>
<g fill="rgb(0%, 0%, 0%)" fill-opacity="1">
<use xlink:href="#glyph-0-0" x="129.072939" y="83.608727"/>
</g>
<g fill="rgb(0%, 0%, 0%)" fill-opacity="1">
<use xlink:href="#glyph-1-0" x="132.503737" y="85.102204"/>
</g>
<g fill="rgb(0%, 0%, 0%)" fill-opacity="1">
<use xlink:href="#glyph-0-1" x="136.972173" y="83.608727"/>
</g>
<g fill="rgb(0%, 0%, 0%)" fill-opacity="1">
<use xlink:href="#glyph-0-0" x="141.401986" y="83.608727"/>
</g>
<g fill="rgb(0%, 0%, 0%)" fill-opacity="1">
<use xlink:href="#glyph-1-1" x="144.829422" y="85.102204"/>
</g>
<g fill="rgb(0%, 0%, 0%)" fill-opacity="1">
<use xlink:href="#glyph-0-1" x="149.296858" y="83.608727"/>
</g>
<g fill="rgb(0%, 0%, 0%)" fill-opacity="1">
<use xlink:href="#glyph-0-0" x="153.726671" y="83.608727"/>
</g>
<g fill="rgb(0%, 0%, 0%)" fill-opacity="1">
<use xlink:href="#glyph-1-2" x="157.154107" y="85.102204"/>
</g>
<g fill="rgb(0%, 0%, 0%)" fill-opacity="1">
<use xlink:href="#glyph-3-1" x="161.621543" y="83.608727"/>
</g>
<path fill-rule="nonzero" fill="rgb(91.999817%, 100%, 91.999817%)" fill-opacity="1" stroke-width="0.3985" stroke-linecap="butt" stroke-linejoin="miter" stroke="rgb(54.998779%, 100%, 54.998779%)" stroke-opacity="1" stroke-miterlimit="10" d="M 121.135773 -89.113975 L -29.104311 -89.113975 C -34.606236 -89.113975 -39.064828 -93.576475 -39.064828 -99.078401 L -39.064828 -133.83666 C -39.064828 -139.338585 -34.606236 -143.801085 -29.104311 -143.801085 L 121.135773 -143.801085 C 126.637699 -143.801085 131.100198 -139.338585 131.100198 -133.83666 L 131.100198 -99.078401 C 131.100198 -93.576475 126.637699 -89.113975 121.135773 -89.113975 Z M 121.135773 -89.113975 " transform="matrix(0.99965, 0, 0, -0.99965, 49.820687, 23.307839)"/>
<g fill="rgb(0%, 0%, 0%)" fill-opacity="1">
<use xlink:href="#glyph-2-10" x="25.169318" y="129.265741"/>
<use xlink:href="#glyph-2-4" x="32.998176" y="129.265741"/>
<use xlink:href="#glyph-2-3" x="37.714812" y="129.265741"/>
<use xlink:href="#glyph-2-8" x="42.964261" y="129.265741"/>
<use xlink:href="#glyph-2-9" x="49.327138" y="129.265741"/>
<use xlink:href="#glyph-2-11" x="55.371324" y="129.265741"/>
<use xlink:href="#glyph-2-7" x="59.188652" y="129.265741"/>
<use xlink:href="#glyph-2-4" x="65.551529" y="129.265741"/>
<use xlink:href="#glyph-2-3" x="70.268165" y="129.265741"/>
<use xlink:href="#glyph-2-2" x="75.517614" y="129.265741"/>
<use xlink:href="#glyph-2-3" x="80.035068" y="129.265741"/>
<use xlink:href="#glyph-2-4" x="85.284516" y="129.265741"/>
<use xlink:href="#glyph-2-5" x="90.001152" y="129.265741"/>
<use xlink:href="#glyph-2-12" x="96.045338" y="129.265741"/>
<use xlink:href="#glyph-2-13" x="99.226278" y="129.265741"/>
<use xlink:href="#glyph-2-14" x="105.589156" y="129.265741"/>
</g>
<g fill="rgb(0%, 0%, 0%)" fill-opacity="1">
<use xlink:href="#glyph-2-2" x="114.63203" y="129.265741"/>
<use xlink:href="#glyph-2-15" x="119.149484" y="129.265741"/>
<use xlink:href="#glyph-2-4" x="123.6032" y="129.265741"/>
<use xlink:href="#glyph-2-16" x="128.319836" y="129.265741"/>
<use xlink:href="#glyph-2-15" x="133.88698" y="129.265741"/>
<use xlink:href="#glyph-2-3" x="138.340695" y="129.265741"/>
<use xlink:href="#glyph-2-14" x="143.590144" y="129.265741"/>
<use xlink:href="#glyph-2-17" x="149.316634" y="129.265741"/>
</g>
<g fill="rgb(0%, 0%, 0%)" fill-opacity="1">
<use xlink:href="#glyph-0-2" x="158.685571" y="129.265741"/>
</g>
<g fill="rgb(0%, 0%, 0%)" fill-opacity="1">
<use xlink:href="#glyph-4-5" x="35.250788" y="143.208859"/>
<use xlink:href="#glyph-4-2" x="41.613665" y="143.208859"/>
<use xlink:href="#glyph-4-6" x="46.759539" y="143.208859"/>
</g>
<g fill="rgb(0%, 0%, 0%)" fill-opacity="1">
<use xlink:href="#glyph-4-6" x="52.017951" y="143.208859"/>
<use xlink:href="#glyph-4-7" x="56.997507" y="143.208859"/>
<use xlink:href="#glyph-4-3" x="60.814835" y="143.208859"/>
</g>
<g fill="rgb(0%, 0%, 0%)" fill-opacity="1">
<use xlink:href="#glyph-4-1" x="68.55705" y="143.208859"/>
<use xlink:href="#glyph-4-2" x="72.153285" y="143.208859"/>
<use xlink:href="#glyph-4-3" x="77.299159" y="143.208859"/>
</g>
<g fill="rgb(0%, 0%, 0%)" fill-opacity="1">
<use xlink:href="#glyph-4-4" x="85.041374" y="143.208859"/>
<use xlink:href="#glyph-4-3" x="90.187247" y="143.208859"/>
<use xlink:href="#glyph-4-8" x="94.613077" y="143.208859"/>
<use xlink:href="#glyph-4-1" x="99.205224" y="143.208859"/>
</g>
<g fill="rgb(0%, 0%, 0%)" fill-opacity="1">
<use xlink:href="#glyph-4-6" x="106.127804" y="143.208859"/>
<use xlink:href="#glyph-4-9" x="111.10736" y="143.208859"/>
<use xlink:href="#glyph-4-1" x="116.253234" y="143.208859"/>
<use xlink:href="#glyph-4-10" x="119.84947" y="143.208859"/>
<use xlink:href="#glyph-4-9" x="124.995344" y="143.208859"/>
<use xlink:href="#glyph-4-1" x="130.141217" y="143.208859"/>
</g>
<g fill="rgb(0%, 0%, 0%)" fill-opacity="1">
<use xlink:href="#glyph-4-11" x="137.053838" y="143.208859"/>
<use xlink:href="#glyph-4-12" x="140.097343" y="143.208859"/>
<use xlink:href="#glyph-4-6" x="143.500372" y="143.208859"/>
<use xlink:href="#glyph-4-13" x="148.479928" y="143.208859"/>
</g>
<g fill="rgb(0%, 0%, 0%)" fill-opacity="1">
<use xlink:href="#glyph-4-1" x="36.246439" y="155.159675"/>
<use xlink:href="#glyph-4-2" x="39.842675" y="155.159675"/>
<use xlink:href="#glyph-4-3" x="44.988549" y="155.159675"/>
</g>
<g fill="rgb(0%, 0%, 0%)" fill-opacity="1">
<use xlink:href="#glyph-4-14" x="52.730763" y="155.159675"/>
<use xlink:href="#glyph-4-4" x="55.109995" y="155.159675"/>
<use xlink:href="#glyph-4-10" x="60.255869" y="155.159675"/>
<use xlink:href="#glyph-4-9" x="65.401743" y="155.159675"/>
<use xlink:href="#glyph-4-1" x="70.547617" y="155.159675"/>
</g>
<g fill="rgb(0%, 0%, 0%)" fill-opacity="1">
<use xlink:href="#glyph-4-2" x="77.470196" y="155.159675"/>
<use xlink:href="#glyph-4-14" x="82.61607" y="155.159675"/>
<use xlink:href="#glyph-4-7" x="84.995302" y="155.159675"/>
<use xlink:href="#glyph-4-1" x="88.81263" y="155.159675"/>
<use xlink:href="#glyph-4-6" x="92.408866" y="155.159675"/>
</g>
<g fill="rgb(0%, 0%, 0%)" fill-opacity="1">
<use xlink:href="#glyph-4-12" x="97.109567" y="155.159675"/>
<use xlink:href="#glyph-4-15" x="100.512596" y="155.159675"/>
</g>
<g fill="rgb(0%, 0%, 0%)" fill-opacity="1">
<use xlink:href="#glyph-4-7" x="108.421128" y="155.159675"/>
<use xlink:href="#glyph-4-3" x="112.238456" y="155.159675"/>
<use xlink:href="#glyph-4-3" x="116.664286" y="155.159675"/>
<use xlink:href="#glyph-4-4" x="121.090115" y="155.159675"/>
</g>
<g fill="rgb(0%, 0%, 0%)" fill-opacity="1">
<use xlink:href="#glyph-4-7" x="129.552374" y="155.159675"/>
<use xlink:href="#glyph-4-6" x="133.369702" y="155.159675"/>
</g>
<g fill="rgb(0%, 0%, 0%)" fill-opacity="1">
<use xlink:href="#glyph-4-11" x="141.675602" y="155.159675"/>
<use xlink:href="#glyph-4-16" x="144.719107" y="155.159675"/>
</g>
<g fill="rgb(0%, 0%, 0%)" fill-opacity="1">
<use xlink:href="#glyph-4-12" x="149.226602" y="155.159675"/>
<use xlink:href="#glyph-4-17" x="152.629631" y="155.159675"/>
</g>
<path fill-rule="nonzero" fill="rgb(97.499084%, 89.99939%, 92.498779%)" fill-opacity="1" d="M 66.601562 183.789062 L 45.699219 183.789062 C 41.296875 183.789062 37.730469 187.355469 37.730469 191.757812 L 37.730469 201.324219 C 37.730469 205.722656 41.296875 209.292969 45.699219 209.292969 L 66.601562 209.292969 C 71 209.292969 74.570312 205.722656 74.570312 201.324219 L 74.570312 191.757812 C 74.570312 187.355469 71 183.789062 66.601562 183.789062 Z M 66.601562 183.789062 "/>
<g clip-path="url(#clip-0)">
<path fill="none" stroke-width="1.19553" stroke-linecap="butt" stroke-linejoin="miter" stroke="rgb(88.749695%, 54.998779%, 66.249084%)" stroke-opacity="1" stroke-miterlimit="10" d="M 16.786751 -160.537411 L -4.122911 -160.537411 C -8.526796 -160.537411 -12.094451 -164.105066 -12.094451 -168.508951 L -12.094451 -178.078707 C -12.094451 -182.478684 -8.526796 -186.050247 -4.122911 -186.050247 L 16.786751 -186.050247 C 21.186729 -186.050247 24.758291 -182.478684 24.758291 -178.078707 L 24.758291 -168.508951 C 24.758291 -164.105066 21.186729 -160.537411 16.786751 -160.537411 Z M 16.786751 -160.537411 " transform="matrix(0.99965, 0, 0, -0.99965, 49.820687, 23.307839)"/>
</g>
<g fill="rgb(0%, 0%, 0%)" fill-opacity="1">
<use xlink:href="#glyph-0-3" x="51.502098" y="197.934699"/>
</g>
<g fill="rgb(0%, 0%, 0%)" fill-opacity="1">
<use xlink:href="#glyph-1-0" x="56.329408" y="199.429175"/>
</g>
<path fill-rule="nonzero" fill="rgb(97.499084%, 89.99939%, 92.498779%)" fill-opacity="1" d="M 112.601562 183.789062 L 91.699219 183.789062 C 87.296875 183.789062 83.730469 187.355469 83.730469 191.757812 L 83.730469 201.324219 C 83.730469 205.722656 87.296875 209.292969 91.699219 209.292969 L 112.601562 209.292969 C 117.003906 209.292969 120.570312 205.722656 120.570312 201.324219 L 120.570312 191.757812 C 120.570312 187.355469 117.003906 183.789062 112.601562 183.789062 Z M 112.601562 183.789062 "/>
<g clip-path="url(#clip-1)">
<path fill="none" stroke-width="1.19553" stroke-linecap="butt" stroke-linejoin="miter" stroke="rgb(88.749695%, 54.998779%, 66.249084%)" stroke-opacity="1" stroke-miterlimit="10" d="M 62.802857 -160.537411 L 41.893195 -160.537411 C 37.48931 -160.537411 33.921655 -164.105066 33.921655 -168.508951 L 33.921655 -178.078707 C 33.921655 -182.478684 37.48931 -186.050247 41.893195 -186.050247 L 62.802857 -186.050247 C 67.206742 -186.050247 70.774397 -182.478684 70.774397 -178.078707 L 70.774397 -168.508951 C 70.774397 -164.105066 67.206742 -160.537411 62.802857 -160.537411 Z M 62.802857 -160.537411 " transform="matrix(0.99965, 0, 0, -0.99965, 49.820687, 23.307839)"/>
</g>
<g fill="rgb(0%, 0%, 0%)" fill-opacity="1">
<use xlink:href="#glyph-0-3" x="97.501992" y="197.934699"/>
</g>
<g fill="rgb(0%, 0%, 0%)" fill-opacity="1">
<use xlink:href="#glyph-1-1" x="102.329302" y="199.429175"/>
</g>
<path fill-rule="nonzero" fill="rgb(97.499084%, 89.99939%, 92.498779%)" fill-opacity="1" d="M 158.601562 183.789062 L 137.699219 183.789062 C 133.300781 183.789062 129.730469 187.355469 129.730469 191.757812 L 129.730469 201.324219 C 129.730469 205.722656 133.300781 209.292969 137.699219 209.292969 L 158.601562 209.292969 C 163.003906 209.292969 166.570312 205.722656 166.570312 201.324219 L 166.570312 191.757812 C 166.570312 187.355469 163.003906 183.789062 158.601562 183.789062 Z M 158.601562 183.789062 "/>
<g clip-path="url(#clip-2)">
<path fill="none" stroke-width="1.19553" stroke-linecap="butt" stroke-linejoin="miter" stroke="rgb(88.749695%, 54.998779%, 66.249084%)" stroke-opacity="1" stroke-miterlimit="10" d="M 108.818963 -160.537411 L 87.9093 -160.537411 C 83.509323 -160.537411 79.93776 -164.105066 79.93776 -168.508951 L 79.93776 -178.078707 C 79.93776 -182.478684 83.509323 -186.050247 87.9093 -186.050247 L 108.818963 -186.050247 C 113.222848 -186.050247 116.790503 -182.478684 116.790503 -178.078707 L 116.790503 -168.508951 C 116.790503 -164.105066 113.222848 -160.537411 108.818963 -160.537411 Z M 108.818963 -160.537411 " transform="matrix(0.99965, 0, 0, -0.99965, 49.820687, 23.307839)"/>
</g>
<g fill="rgb(0%, 0%, 0%)" fill-opacity="1">
<use xlink:href="#glyph-0-3" x="143.501887" y="197.934699"/>
</g>
<g fill="rgb(0%, 0%, 0%)" fill-opacity="1">
<use xlink:href="#glyph-1-2" x="148.330196" y="199.429175"/>
</g>
<g clip-path="url(#clip-3)">
<path fill="none" stroke-width="1.19553" stroke-linecap="butt" stroke-linejoin="miter" stroke="rgb(0%, 0%, 0%)" stroke-opacity="1" stroke-miterlimit="10" d="M -17.893356 -13.353084 L -33.035374 -24.650007 " transform="matrix(0.99965, 0, 0, -0.99965, 49.820687, 23.307839)"/>
</g>
<path fill-rule="nonzero" fill="rgb(0%, 0%, 0%)" fill-opacity="1" d="M 12.542969 51.117188 C 13.164062 50.859375 16.011719 49.890625 18.050781 49.628906 L 15.542969 46.265625 C 14.710938 48.144531 12.96875 50.597656 12.542969 51.117188 Z M 12.542969 51.117188 "/>
<g clip-path="url(#clip-4)">
<path fill="none" stroke-width="1.19553" stroke-linecap="butt" stroke-linejoin="miter" stroke="rgb(0%, 0%, 0%)" stroke-opacity="1" stroke-miterlimit="10" d="M 5.306805 -0.00241985 C 4.654534 0.162306 1.791504 1.08861 -0.000216982 2.098286 L -0.000691811 -2.098748 C 1.790308 -1.08963 4.654628 -0.16439 5.306805 -0.00241985 Z M 5.306805 -0.00241985 " transform="matrix(-0.801279, 0.597611, 0.597611, 0.801279, 16.796649, 47.947722)"/>
</g>
<path fill="none" stroke-width="1.19553" stroke-linecap="butt" stroke-linejoin="miter" stroke="rgb(0%, 0%, 0%)" stroke-opacity="1" stroke-miterlimit="10" d="M 46.015731 -13.353084 L 46.015731 -21.523913 " transform="matrix(0.99965, 0, 0, -0.99965, 49.820687, 23.307839)"/>
<path fill-rule="nonzero" fill="rgb(0%, 0%, 0%)" fill-opacity="1" stroke-width="1.19553" stroke-linecap="butt" stroke-linejoin="miter" stroke="rgb(0%, 0%, 0%)" stroke-opacity="1" stroke-miterlimit="10" d="M 5.307248 -0.000918594 C 4.654675 0.163201 1.790392 1.089307 0.000702719 2.097472 L 0.000702719 -2.099309 C 1.790392 -1.091144 4.654675 -0.165039 5.307248 -0.000918594 Z M 5.307248 -0.000918594 " transform="matrix(0, 0.99965, 0.99965, 0, 95.821231, 44.823516)"/>
<path fill="none" stroke-width="1.19553" stroke-linecap="butt" stroke-linejoin="miter" stroke="rgb(0%, 0%, 0%)" stroke-opacity="1" stroke-miterlimit="10" d="M 109.924818 -13.353084 L 125.070744 -24.650007 " transform="matrix(0.99965, 0, 0, -0.99965, 49.820687, 23.307839)"/>
<path fill-rule="nonzero" fill="rgb(0%, 0%, 0%)" fill-opacity="1" stroke-width="1.19553" stroke-linecap="butt" stroke-linejoin="miter" stroke="rgb(0%, 0%, 0%)" stroke-opacity="1" stroke-miterlimit="10" d="M 5.305317 0.00130947 C 4.653139 0.163279 1.788819 1.08852 -0.00218063 2.097638 L 0.00142675 -2.09706 C 1.790015 -1.08972 4.653045 -0.163417 5.305317 0.00130947 Z M 5.305317 0.00130947 " transform="matrix(0.801279, 0.597611, 0.597611, -0.801279, 174.845832, 47.947722)"/>
<path fill="none" stroke-width="1.19553" stroke-linecap="butt" stroke-linejoin="miter" stroke="rgb(0%, 0%, 0%)" stroke-opacity="1" stroke-miterlimit="10" d="M 46.015731 -72.975515 L 46.015731 -81.146343 " transform="matrix(0.99965, 0, 0, -0.99965, 49.820687, 23.307839)"/>
<path fill-rule="nonzero" fill="rgb(0%, 0%, 0%)" fill-opacity="1" stroke-width="1.19553" stroke-linecap="butt" stroke-linejoin="miter" stroke="rgb(0%, 0%, 0%)" stroke-opacity="1" stroke-miterlimit="10" d="M 5.308068 -0.000918594 C 4.655496 0.163201 1.791212 1.089307 0.00152307 2.097472 L 0.00152307 -2.099309 C 1.791212 -1.091144 4.655496 -0.165039 5.308068 -0.000918594 Z M 5.308068 -0.000918594 " transform="matrix(0, 0.99965, 0.99965, 0, 95.821231, 104.424259)"/>
<path fill="none" stroke-width="1.19553" stroke-linecap="butt" stroke-linejoin="miter" stroke="rgb(0%, 0%, 0%)" stroke-opacity="1" stroke-miterlimit="10" d="M 49.083211 -144.000373 L 50.001501 -152.218093 " transform="matrix(0.99965, 0, 0, -0.99965, 49.820687, 23.307839)"/>
<path fill-rule="nonzero" fill="rgb(0%, 0%, 0%)" fill-opacity="1" stroke-width="1.19553" stroke-linecap="butt" stroke-linejoin="miter" stroke="rgb(0%, 0%, 0%)" stroke-opacity="1" stroke-miterlimit="10" d="M 5.305849 -0.000778865 C 4.655576 0.162157 1.790482 1.091049 -0.00047313 2.096784 L -0.000322283 -2.098672 C 1.790958 -1.091262 4.65459 -0.164089 5.305849 -0.000778865 Z M 5.305849 -0.000778865 " transform="matrix(0.110761, 0.993452, 0.993452, -0.110761, 99.803716, 175.470994)"/>
<g clip-path="url(#clip-5)">
<path fill="none" stroke-width="1.19553" stroke-linecap="butt" stroke-linejoin="miter" stroke="rgb(0%, 0%, 0%)" stroke-opacity="1" stroke-miterlimit="10" d="M -39.264117 -144.000373 L -1.004632 -157.376149 " transform="matrix(0.99965, 0, 0, -0.99965, 49.820687, 23.307839)"/>
</g>
<path fill-rule="nonzero" fill="rgb(0%, 0%, 0%)" fill-opacity="1" stroke-width="1.19553" stroke-linecap="butt" stroke-linejoin="miter" stroke="rgb(0%, 0%, 0%)" stroke-opacity="1" stroke-miterlimit="10" d="M 5.306693 -0.000775972 C 4.652987 0.16396 1.792056 1.088738 -0.00105777 2.097045 L -0.000529263 -2.096275 C 1.791646 -1.088882 4.655267 -0.162278 5.306693 -0.000775972 Z M 5.306693 -0.000775972 " transform="matrix(0.94361, 0.329885, 0.329885, -0.94361, 48.817028, 180.627578)"/>
<path fill="none" stroke-width="1.19553" stroke-linecap="butt" stroke-linejoin="miter" stroke="rgb(0%, 0%, 0%)" stroke-opacity="1" stroke-miterlimit="10" d="M 131.299487 -144.000373 L 105.360721 -156.555549 " transform="matrix(0.99965, 0, 0, -0.99965, 49.820687, 23.307839)"/>
<path fill-rule="nonzero" fill="rgb(0%, 0%, 0%)" fill-opacity="1" stroke-width="1.19553" stroke-linecap="butt" stroke-linejoin="miter" stroke="rgb(0%, 0%, 0%)" stroke-opacity="1" stroke-miterlimit="10" d="M 5.307178 -0.00108695 C 4.653142 0.16352 1.788864 1.089655 0.00190094 2.097826 L -0.00173813 -2.098605 C 1.788965 -1.089806 4.655603 -0.163281 5.307178 -0.00108695 Z M 5.307178 -0.00108695 " transform="matrix(-0.899755, 0.435488, 0.435488, 0.899755, 155.142821, 179.806956)"/>
<path fill="none" stroke-width="1.19553" stroke-linecap="butt" stroke-linejoin="miter" stroke="rgb(100%, 44.999695%, 44.999695%)" stroke-opacity="1" stroke-dasharray="2.98883 2.98883" stroke-miterlimit="10" d="M 138.05185 -13.353084 L 138.05185 -33.930599 " transform="matrix(0.99965, 0, 0, -0.99965, 49.820687, 23.307839)"/>
<path fill-rule="nonzero" fill="rgb(100%, 44.999695%, 44.999695%)" fill-opacity="1" stroke-width="1.19553" stroke-linecap="butt" stroke-linejoin="miter" stroke="rgb(100%, 44.999695%, 44.999695%)" stroke-opacity="1" stroke-miterlimit="10" d="M 5.307544 0.0018803 C 4.654971 0.162093 1.790688 1.088198 0.00099881 2.096363 L 0.00099881 -2.09651 C 1.790688 -1.088345 4.654971 -0.16224 5.307544 0.0018803 Z M 5.307544 0.0018803 " transform="matrix(0, 0.99965, 0.99965, 0, 187.822339, 57.225564)"/>
<g fill="rgb(29.998779%, 29.998779%, 29.998779%)" fill-opacity="1">
<use xlink:href="#glyph-5-0" x="191.737998" y="48.460033"/>
<use xlink:href="#glyph-5-1" x="194.552462" y="48.460033"/>
<use xlink:href="#glyph-5-2" x="199.311058" y="48.460033"/>
<use xlink:href="#glyph-5-1" x="202.637324" y="48.460033"/>
<use xlink:href="#glyph-5-3" x="207.39592" y="48.460033"/>
<use xlink:href="#glyph-5-4" x="210.542921" y="48.460033"/>
</g>
<g fill="rgb(29.998779%, 29.998779%, 29.998779%)" fill-opacity="1">
<use xlink:href="#glyph-5-5" x="217.702775" y="48.460033"/>
<use xlink:href="#glyph-5-6" x="219.902359" y="48.460033"/>
<use xlink:href="#glyph-5-7" x="224.660955" y="48.460033"/>
<use xlink:href="#glyph-5-1" x="229.419551" y="48.460033"/>
<use xlink:href="#glyph-5-2" x="234.178146" y="48.460033"/>
</g>
<g fill="rgb(29.998779%, 29.998779%, 29.998779%)" fill-opacity="1">
<use xlink:href="#glyph-5-6" x="240.578811" y="48.460033"/>
<use xlink:href="#glyph-5-8" x="245.337407" y="48.460033"/>
<use xlink:href="#glyph-5-2" x="249.943627" y="48.460033"/>
</g>
<g fill="rgb(29.998779%, 29.998779%, 29.998779%)" fill-opacity="1">
<use xlink:href="#glyph-5-9" x="256.335329" y="48.460033"/>
</g>
<g fill="rgb(29.998779%, 29.998779%, 29.998779%)" fill-opacity="1">
<use xlink:href="#glyph-5-4" x="260.331151" y="48.460033"/>
<use xlink:href="#glyph-5-2" x="264.425569" y="48.460033"/>
</g>
<g fill="rgb(29.998779%, 29.998779%, 29.998779%)" fill-opacity="1">
<use xlink:href="#glyph-5-10" x="191.737998" y="59.415197"/>
<use xlink:href="#glyph-5-11" x="196.164057" y="59.415197"/>
<use xlink:href="#glyph-5-10" x="200.41085" y="59.415197"/>
<use xlink:href="#glyph-5-5" x="204.836909" y="59.415197"/>
<use xlink:href="#glyph-5-12" x="207.036493" y="59.415197"/>
<use xlink:href="#glyph-5-10" x="209.236078" y="59.415197"/>
<use xlink:href="#glyph-5-13" x="213.662136" y="59.415197"/>
<use xlink:href="#glyph-5-12" x="218.420732" y="59.415197"/>
<use xlink:href="#glyph-5-4" x="220.620317" y="59.415197"/>
</g>
<g fill="rgb(29.998779%, 29.998779%, 29.998779%)" fill-opacity="1">
<use xlink:href="#glyph-5-14" x="202.516224" y="120.924662"/>
<use xlink:href="#glyph-5-15" x="208.810227" y="120.924662"/>
<use xlink:href="#glyph-5-5" x="213.568823" y="120.924662"/>
<use xlink:href="#glyph-5-16" x="215.768407" y="120.924662"/>
</g>
<g fill="rgb(29.998779%, 29.998779%, 29.998779%)" fill-opacity="1">
<use xlink:href="#glyph-5-5" x="222.365368" y="120.924662"/>
<use xlink:href="#glyph-5-16" x="224.564952" y="120.924662"/>
</g>
<g fill="rgb(29.998779%, 29.998779%, 29.998779%)" fill-opacity="1">
<use xlink:href="#glyph-5-2" x="231.170876" y="120.924662"/>
<use xlink:href="#glyph-5-15" x="234.497142" y="120.924662"/>
<use xlink:href="#glyph-5-4" x="239.255738" y="120.924662"/>
</g>
<g fill="rgb(29.998779%, 29.998779%, 29.998779%)" fill-opacity="1">
<use xlink:href="#glyph-5-8" x="246.415592" y="120.924662"/>
<use xlink:href="#glyph-5-6" x="251.021812" y="120.924662"/>
<use xlink:href="#glyph-5-12" x="255.780407" y="120.924662"/>
<use xlink:href="#glyph-5-5" x="257.979992" y="120.924662"/>
<use xlink:href="#glyph-5-6" x="260.179576" y="120.924662"/>
<use xlink:href="#glyph-5-4" x="264.938172" y="120.924662"/>
</g>
<g fill="rgb(29.998779%, 29.998779%, 29.998779%)" fill-opacity="1">
<use xlink:href="#glyph-5-17" x="272.106989" y="120.924662"/>
<use xlink:href="#glyph-5-8" x="276.201407" y="120.924662"/>
<use xlink:href="#glyph-5-6" x="280.807627" y="120.924662"/>
<use xlink:href="#glyph-5-16" x="285.566223" y="120.924662"/>
<use xlink:href="#glyph-5-2" x="289.097748" y="120.924662"/>
<use xlink:href="#glyph-5-3" x="292.424014" y="120.924662"/>
<use xlink:href="#glyph-5-10" x="295.571015" y="120.924662"/>
<use xlink:href="#glyph-5-5" x="299.997074" y="120.924662"/>
<use xlink:href="#glyph-5-6" x="302.196658" y="120.924662"/>
<use xlink:href="#glyph-5-2" x="306.955254" y="120.924662"/>
</g>
<g fill="rgb(29.998779%, 29.998779%, 29.998779%)" fill-opacity="1">
<use xlink:href="#glyph-5-5" x="202.516224" y="131.879826"/>
<use xlink:href="#glyph-5-6" x="204.715809" y="131.879826"/>
</g>
<g fill="rgb(29.998779%, 29.998779%, 29.998779%)" fill-opacity="1">
<use xlink:href="#glyph-5-18" x="212.53984" y="131.879826"/>
<use xlink:href="#glyph-5-1" x="218.681467" y="131.879826"/>
<use xlink:href="#glyph-5-10" x="223.440063" y="131.879826"/>
</g>
<g fill="rgb(29.998779%, 29.998779%, 29.998779%)" fill-opacity="1">
<use xlink:href="#glyph-5-3" x="227.61515" y="131.879826"/>
<use xlink:href="#glyph-5-19" x="230.762151" y="131.879826"/>
<use xlink:href="#glyph-5-4" x="235.520747" y="131.879826"/>
<use xlink:href="#glyph-5-19" x="239.615165" y="131.879826"/>
</g>
<g fill="rgb(29.998779%, 29.998779%, 29.998779%)" fill-opacity="1">
<use xlink:href="#glyph-5-20" x="247.439196" y="131.879826"/>
<use xlink:href="#glyph-5-1" x="252.557219" y="131.879826"/>
<use xlink:href="#glyph-5-17" x="257.315814" y="131.879826"/>
<use xlink:href="#glyph-5-17" x="261.410232" y="131.879826"/>
<use xlink:href="#glyph-5-4" x="265.50465" y="131.879826"/>
<use xlink:href="#glyph-5-16" x="269.599068" y="131.879826"/>
<use xlink:href="#glyph-5-16" x="273.130593" y="131.879826"/>
<use xlink:href="#glyph-5-8" x="276.662118" y="131.879826"/>
</g>
<g fill="rgb(29.998779%, 29.998779%, 29.998779%)" fill-opacity="1">
<use xlink:href="#glyph-5-3" x="281.017367" y="131.879826"/>
<use xlink:href="#glyph-5-21" x="284.164368" y="131.879826"/>
</g>
<g fill="rgb(29.998779%, 29.998779%, 29.998779%)" fill-opacity="1">
<use xlink:href="#glyph-5-22" x="291.321533" y="131.879826"/>
</g>
<g fill="rgb(29.998779%, 29.998779%, 29.998779%)" fill-opacity="1">
<use xlink:href="#glyph-5-11" x="300.551004" y="131.879826"/>
<use xlink:href="#glyph-5-10" x="304.797797" y="131.879826"/>
<use xlink:href="#glyph-5-12" x="309.223856" y="131.879826"/>
<use xlink:href="#glyph-5-5" x="311.42344" y="131.879826"/>
<use xlink:href="#glyph-5-19" x="313.623025" y="131.879826"/>
</g>
<g fill="rgb(29.998779%, 29.998779%, 29.998779%)" fill-opacity="1">
<use xlink:href="#glyph-5-8" x="202.516224" y="142.83499"/>
<use xlink:href="#glyph-5-1" x="207.122445" y="142.83499"/>
<use xlink:href="#glyph-5-2" x="211.88104" y="142.83499"/>
<use xlink:href="#glyph-5-7" x="215.207307" y="142.83499"/>
<use xlink:href="#glyph-5-1" x="219.965902" y="142.83499"/>
<use xlink:href="#glyph-5-2" x="224.724498" y="142.83499"/>
</g>
<g fill="rgb(29.998779%, 29.998779%, 29.998779%)" fill-opacity="1">
<use xlink:href="#glyph-5-15" x="231.1162" y="142.83499"/>
<use xlink:href="#glyph-5-5" x="235.874796" y="142.83499"/>
<use xlink:href="#glyph-5-16" x="238.07438" y="142.83499"/>
<use xlink:href="#glyph-5-2" x="241.605905" y="142.83499"/>
<use xlink:href="#glyph-5-8" x="244.932172" y="142.83499"/>
</g>
<g fill="rgb(29.998779%, 29.998779%, 29.998779%)" fill-opacity="1">
<use xlink:href="#glyph-5-3" x="249.287421" y="142.83499"/>
<use xlink:href="#glyph-5-9" x="252.434422" y="142.83499"/>
</g>
<g fill="rgb(29.998779%, 29.998779%, 29.998779%)" fill-opacity="1">
<use xlink:href="#glyph-5-5" x="259.746651" y="142.83499"/>
<use xlink:href="#glyph-5-16" x="261.946235" y="142.83499"/>
</g>
<g fill="rgb(29.998779%, 29.998779%, 29.998779%)" fill-opacity="1">
<use xlink:href="#glyph-5-6" x="268.552159" y="142.83499"/>
<use xlink:href="#glyph-5-8" x="273.310755" y="142.83499"/>
<use xlink:href="#glyph-5-2" x="277.916975" y="142.83499"/>
</g>
<g fill="rgb(29.998779%, 29.998779%, 29.998779%)" fill-opacity="1">
<use xlink:href="#glyph-5-4" x="284.308677" y="142.83499"/>
<use xlink:href="#glyph-5-6" x="288.403095" y="142.83499"/>
<use xlink:href="#glyph-5-8" x="293.161691" y="142.83499"/>
<use xlink:href="#glyph-5-1" x="297.767911" y="142.83499"/>
<use xlink:href="#glyph-5-23" x="302.526507" y="142.83499"/>
<use xlink:href="#glyph-5-15" x="307.132727" y="142.83499"/>
<use xlink:href="#glyph-5-21" x="311.891322" y="142.83499"/>
</g>
<g fill="rgb(29.998779%, 29.998779%, 29.998779%)" fill-opacity="1">
<use xlink:href="#glyph-5-14" x="202.516224" y="153.790155"/>
<use xlink:href="#glyph-5-15" x="208.810227" y="153.790155"/>
<use xlink:href="#glyph-5-4" x="213.568823" y="153.790155"/>
</g>
<g fill="rgb(29.998779%, 29.998779%, 29.998779%)" fill-opacity="1">
<use xlink:href="#glyph-5-3" x="220.728676" y="153.790155"/>
<use xlink:href="#glyph-5-4" x="223.875677" y="153.790155"/>
<use xlink:href="#glyph-5-16" x="227.970095" y="153.790155"/>
<use xlink:href="#glyph-5-7" x="231.50162" y="153.790155"/>
</g>
<g fill="rgb(29.998779%, 29.998779%, 29.998779%)" fill-opacity="1">
<use xlink:href="#glyph-5-8" x="236.520151" y="153.790155"/>
<use xlink:href="#glyph-5-6" x="241.126371" y="153.790155"/>
<use xlink:href="#glyph-5-16" x="245.884966" y="153.790155"/>
<use xlink:href="#glyph-5-4" x="249.416492" y="153.790155"/>
</g>
<g fill="rgb(29.998779%, 29.998779%, 29.998779%)" fill-opacity="1">
<use xlink:href="#glyph-5-24" x="256.576345" y="153.790155"/>
<use xlink:href="#glyph-5-1" x="263.893056" y="153.790155"/>
<use xlink:href="#glyph-5-16" x="268.651651" y="153.790155"/>
<use xlink:href="#glyph-5-2" x="272.183176" y="153.790155"/>
</g>
<g fill="rgb(29.998779%, 29.998779%, 29.998779%)" fill-opacity="1">
<use xlink:href="#glyph-5-16" x="278.583842" y="153.790155"/>
<use xlink:href="#glyph-5-2" x="282.115367" y="153.790155"/>
<use xlink:href="#glyph-5-10" x="285.441633" y="153.790155"/>
</g>
<g fill="rgb(29.998779%, 29.998779%, 29.998779%)" fill-opacity="1">
<use xlink:href="#glyph-5-9" x="289.607757" y="153.790155"/>
</g>
<g fill="rgb(29.998779%, 29.998779%, 29.998779%)" fill-opacity="1">
<use xlink:href="#glyph-5-5" x="296.92895" y="153.790155"/>
<use xlink:href="#glyph-5-6" x="299.128534" y="153.790155"/>
</g>
<g fill="rgb(29.998779%, 29.998779%, 29.998779%)" fill-opacity="1">
<use xlink:href="#glyph-5-2" x="202.516224" y="164.745319"/>
<use xlink:href="#glyph-5-5" x="205.842491" y="164.745319"/>
<use xlink:href="#glyph-5-24" x="208.042075" y="164.745319"/>
<use xlink:href="#glyph-5-4" x="215.358786" y="164.745319"/>
</g>
<g fill="rgb(29.998779%, 29.998779%, 29.998779%)" fill-opacity="1">
<use xlink:href="#glyph-5-25" x="222.527603" y="164.745319"/>
<use xlink:href="#glyph-5-5" x="228.821605" y="164.745319"/>
<use xlink:href="#glyph-5-2" x="231.021189" y="164.745319"/>
<use xlink:href="#glyph-5-15" x="234.347456" y="164.745319"/>
</g>
<g fill="rgb(29.998779%, 29.998779%, 29.998779%)" fill-opacity="1">
<use xlink:href="#glyph-5-2" x="242.171487" y="164.745319"/>
<use xlink:href="#glyph-5-15" x="245.497754" y="164.745319"/>
<use xlink:href="#glyph-5-4" x="250.256349" y="164.745319"/>
</g>
<g fill="rgb(29.998779%, 29.998779%, 29.998779%)" fill-opacity="1">
<use xlink:href="#glyph-5-16" x="257.425166" y="164.745319"/>
<use xlink:href="#glyph-5-2" x="260.956691" y="164.745319"/>
<use xlink:href="#glyph-5-3" x="264.282958" y="164.745319"/>
<use xlink:href="#glyph-5-4" x="267.429959" y="164.745319"/>
<use xlink:href="#glyph-5-10" x="271.524377" y="164.745319"/>
<use xlink:href="#glyph-5-24" x="275.950435" y="164.745319"/>
<use xlink:href="#glyph-5-21" x="283.267146" y="164.745319"/>
</g>
</svg>
