<?xml version="1.0" encoding="UTF-8" standalone="no"?>
<!DOCTYPE svg PUBLIC "-//W3C//DTD SVG 1.1//EN"
 "http://www.w3.org/Graphics/SVG/1.1/DTD/svg11.dtd">
<!-- Generated by graphviz version 2.50.0 (20211204.2007)
 -->
<!-- Title: G Pages: 1 -->
<svg width="906pt" height="61pt"
 viewBox="0.00 0.00 906.00 61.00" xmlns="http://www.w3.org/2000/svg" xmlns:xlink="http://www.w3.org/1999/xlink">
<g id="graph0" class="graph" transform="scale(1 1) rotate(0) translate(4 57)">
<title>G</title>
<polygon fill="white" stroke="transparent" points="-4,4 -4,-57 902,-57 902,4 -4,4"/>
<!-- S -->
<g id="node1" class="node">
<title>S</title>
<path fill="#e6f2ff" stroke="black" d="M119,-45.5C119,-45.5 12,-45.5 12,-45.5 6,-45.5 0,-39.5 0,-33.5 0,-33.5 0,-19.5 0,-19.5 0,-13.5 6,-7.5 12,-7.5 12,-7.5 119,-7.5 119,-7.5 125,-7.5 131,-13.5 131,-19.5 131,-19.5 131,-33.5 131,-33.5 131,-39.5 125,-45.5 119,-45.5"/>
<text text-anchor="middle" x="65.5" y="-30.3" font-family="sans-serif" font-size="14.00">S</text>
<text text-anchor="middle" x="65.5" y="-15.3" font-family="sans-serif" font-size="14.00">Deployed System</text>
</g>
<!-- m -->
<g id="node2" class="node">
<title>m</title>
<path fill="#fff0e6" stroke="black" d="M351,-53C351,-53 229,-53 229,-53 223,-53 217,-47 217,-41 217,-41 217,-12 217,-12 217,-6 223,0 229,0 229,0 351,0 351,0 357,0 363,-6 363,-12 363,-12 363,-41 363,-41 363,-47 357,-53 351,-53"/>
<text text-anchor="middle" x="290" y="-37.8" font-family="sans-serif" font-size="14.00">m</text>
<text text-anchor="middle" x="290" y="-22.8" font-family="sans-serif" font-size="14.00">Output</text>
<text text-anchor="middle" x="290" y="-7.8" font-family="sans-serif" font-size="14.00">(e.g., distress claim)</text>
</g>
<!-- S&#45;&gt;m -->
<g id="edge1" class="edge">
<title>S&#45;&gt;m</title>
<path fill="none" stroke="black" d="M131.16,-26.5C154.72,-26.5 181.7,-26.5 206.6,-26.5"/>
<polygon fill="black" stroke="black" points="206.76,-30 216.76,-26.5 206.76,-23 206.76,-30"/>
<text text-anchor="middle" x="174" y="-29.5" font-family="sans-serif" font-size="10.00"> generates</text>
</g>
<!-- BH -->
<g id="node3" class="node">
<title>BH</title>
<path fill="#f0f8ff" stroke="black" d="M546,-53C546,-53 467,-53 467,-53 461,-53 455,-47 455,-41 455,-41 455,-12 455,-12 455,-6 461,0 467,0 467,0 546,0 546,0 552,0 558,-6 558,-12 558,-12 558,-41 558,-41 558,-47 552,-53 546,-53"/>
<text text-anchor="middle" x="506.5" y="-37.8" font-family="sans-serif" font-size="14.00">B_H</text>
<text text-anchor="middle" x="506.5" y="-22.8" font-family="sans-serif" font-size="14.00">Host Belief</text>
<text text-anchor="middle" x="506.5" y="-7.8" font-family="sans-serif" font-size="14.00">(uncertainty)</text>
</g>
<!-- m&#45;&gt;BH -->
<g id="edge2" class="edge">
<title>m&#45;&gt;BH</title>
<path fill="none" stroke="black" d="M363.02,-26.5C389.55,-26.5 419.31,-26.5 444.75,-26.5"/>
<polygon fill="black" stroke="black" points="445,-30 455,-26.5 445,-23 445,-30"/>
<text text-anchor="middle" x="409" y="-29.5" font-family="sans-serif" font-size="10.00"> received by</text>
</g>
<!-- aH -->
<g id="node4" class="node">
<title>aH</title>
<path fill="#e6ffe6" stroke="black" d="M720,-53C720,-53 635,-53 635,-53 629,-53 623,-47 623,-41 623,-41 623,-12 623,-12 623,-6 629,0 635,0 635,0 720,0 720,0 726,0 732,-6 732,-12 732,-12 732,-41 732,-41 732,-47 726,-53 720,-53"/>
<text text-anchor="middle" x="677.5" y="-37.8" font-family="sans-serif" font-size="14.00">a_H</text>
<text text-anchor="middle" x="677.5" y="-22.8" font-family="sans-serif" font-size="14.00">Host Action</text>
<text text-anchor="middle" x="677.5" y="-7.8" font-family="sans-serif" font-size="14.00">(preservation)</text>
</g>
<!-- BH&#45;&gt;aH -->
<g id="edge3" class="edge">
<title>BH&#45;&gt;aH</title>
<path fill="none" stroke="black" d="M558.21,-26.5C575.35,-26.5 594.72,-26.5 612.75,-26.5"/>
<polygon fill="black" stroke="black" points="612.89,-30 622.89,-26.5 612.89,-23 612.89,-30"/>
<text text-anchor="middle" x="590.5" y="-29.5" font-family="sans-serif" font-size="10.00"> alters</text>
</g>
<!-- S_prime -->
<g id="node5" class="node">
<title>S_prime</title>
<path fill="#e6f2ff" stroke="black" d="M886,-45.5C886,-45.5 814,-45.5 814,-45.5 808,-45.5 802,-39.5 802,-33.5 802,-33.5 802,-19.5 802,-19.5 802,-13.5 808,-7.5 814,-7.5 814,-7.5 886,-7.5 886,-7.5 892,-7.5 898,-13.5 898,-19.5 898,-19.5 898,-33.5 898,-33.5 898,-39.5 892,-45.5 886,-45.5"/>
<text text-anchor="middle" x="850" y="-30.3" font-family="sans-serif" font-size="14.00">S&#39;</text>
<text text-anchor="middle" x="850" y="-15.3" font-family="sans-serif" font-size="14.00">Descendant</text>
</g>
<!-- aH&#45;&gt;S_prime -->
<g id="edge4" class="edge">
<title>aH&#45;&gt;S_prime</title>
<path fill="none" stroke="black" d="M732.45,-26.5C751.3,-26.5 772.53,-26.5 791.65,-26.5"/>
<polygon fill="black" stroke="black" points="791.73,-30 801.73,-26.5 791.73,-23 791.73,-30"/>
<text text-anchor="middle" x="767" y="-29.5" font-family="sans-serif" font-size="10.00"> causes</text>
</g>
</g>
</svg>
